<svg width="444" height="96" viewBox="0 0 444 96" fill="none" xmlns="http://www.w3.org/2000/svg">
<path d="M120.029 23.0533H114.876V71.148H120.029V51.3605C120.029 48.2916 121.037 45.7724 123.052 43.8028C125.067 41.879 127.518 40.9171 130.404 40.9171C133.244 40.9171 135.557 41.8561 137.343 43.7341C139.129 45.612 140.023 48.1313 140.023 51.2918V71.148H145.176V51.1544C145.176 46.5739 143.756 42.8867 140.916 40.0926C139.679 38.8101 138.236 37.8482 136.587 37.2069C134.938 36.5657 132.969 36.245 130.679 36.245C128.388 36.245 126.35 36.8176 124.564 37.9627C122.777 39.1078 121.266 40.5048 120.029 42.1538V23.0533ZM167.924 36.245C162.794 36.245 158.626 37.9627 155.42 41.398C152.397 44.696 150.885 48.8871 150.885 53.9714C150.885 59.0557 152.397 63.2468 155.42 66.5447C158.626 69.98 162.794 71.6977 167.924 71.6977C173.054 71.6977 177.223 69.98 180.429 66.5447C183.452 63.2468 184.964 59.0557 184.964 53.9714C184.964 48.8871 183.452 44.696 180.429 41.398C177.223 37.9627 173.054 36.245 167.924 36.245ZM167.924 67.0256C164.214 67.0256 161.283 65.7431 159.13 63.1781C157.069 60.7504 156.038 57.6815 156.038 53.9714C156.038 50.2612 157.069 47.1923 159.13 44.7647C161.283 42.1996 164.214 40.9171 167.924 40.9171C171.634 40.9171 174.566 42.1996 176.719 44.7647C178.78 47.1923 179.81 50.2612 179.81 53.9714C179.81 57.6815 178.78 60.7504 176.719 63.1781C174.566 65.7431 171.634 67.0256 167.924 67.0256ZM215.819 71.148H220.973V36.7947H215.819V56.5822C215.819 59.6511 214.812 62.1704 212.796 64.14C210.781 66.0637 208.33 67.0256 205.445 67.0256C202.605 67.0256 200.292 66.0866 198.505 64.2087C196.719 62.3307 195.826 59.8114 195.826 56.6509V36.7947H190.673V56.7883C190.673 61.3688 192.093 65.056 194.933 67.8501C196.169 69.1326 197.612 70.0945 199.261 70.7358C200.91 71.3771 202.88 71.6977 205.17 71.6977C207.46 71.6977 209.498 71.1251 211.285 69.98C213.071 68.8349 214.583 67.4379 215.819 65.7889V71.148ZM249.356 46.0014H254.578C254.257 43.2073 253.089 40.9629 251.074 39.2681C248.646 37.2527 245.325 36.245 241.111 36.245C236.668 36.245 233.313 37.1039 231.046 38.8215C228.778 40.5392 227.645 42.9554 227.645 46.0701C227.645 48.1771 228.206 49.8261 229.328 51.017C230.45 52.2079 231.859 53.1469 233.553 53.834C235.248 54.521 237.092 55.0592 239.084 55.4486C241.077 55.8379 242.92 56.273 244.615 56.754C246.31 57.2349 247.719 57.8533 248.841 58.6091C249.963 59.3648 250.524 60.4527 250.524 61.8726C250.524 63.9796 249.425 65.4683 247.226 66.3386C246.264 66.705 245.279 66.9569 244.272 67.0943C243.264 67.2318 242.176 67.3005 241.008 67.3005C239.84 67.3005 238.661 67.1172 237.47 66.7508C234.218 65.6515 232.431 63.5216 232.111 60.3611H226.752C226.935 63.6132 228.263 66.247 230.736 68.2624C233.439 70.5526 237.08 71.6977 241.661 71.6977C245.966 71.6977 249.379 70.816 251.898 69.0525C254.417 67.289 255.677 64.7354 255.677 61.3917C255.677 59.2389 255.116 57.5441 253.994 56.3074C252.872 55.0707 251.463 54.0973 249.768 53.3874C248.073 52.6774 246.23 52.1277 244.237 51.7384C242.245 51.3491 240.401 50.9254 238.706 50.4673C237.012 50.0093 235.603 49.4253 234.481 48.7153C233.359 48.0053 232.798 46.9633 232.798 45.5891C232.798 42.2912 235.443 40.6423 240.733 40.6423C246.024 40.6423 248.898 42.4286 249.356 46.0014ZM276.845 67.0256C273.456 67.0256 270.662 65.9721 268.463 63.8651C266.31 61.8039 265.051 59.1931 264.684 56.0326H293.472V53.9714C293.472 48.8871 291.961 44.696 288.938 41.398C285.731 37.9627 281.563 36.245 276.433 36.245C271.303 36.245 267.135 37.9627 263.929 41.398C260.905 44.696 259.394 48.8871 259.394 53.9714C259.394 59.0099 260.974 63.201 264.135 66.5447C267.387 69.98 271.601 71.6977 276.777 71.6977C280.853 71.6977 284.186 70.7358 286.774 68.812C289.361 66.8882 291.251 64.369 292.442 61.2543H286.808C284.792 65.1019 281.472 67.0256 276.845 67.0256ZM276.433 40.9171C279.594 40.9171 282.25 41.9019 284.403 43.8715C286.419 45.7495 287.655 48.2 288.113 51.2231H264.753C265.211 48.2 266.448 45.7495 268.463 43.8715C270.616 41.9019 273.273 40.9171 276.433 40.9171ZM320.481 43.7341L329.069 71.148H334.978L345.765 36.7947H340.268L332.024 64.7583L323.298 36.7947H317.664L308.938 64.7583L300.693 36.7947H295.197L305.984 71.148H311.892L320.481 43.7341ZM376.621 65.6515V71.148H381.774V36.7947H376.621V42.3599C373.827 38.2833 369.842 36.245 364.666 36.245C359.49 36.245 355.345 37.9627 352.23 41.398C349.207 44.7876 347.695 48.9787 347.695 53.9714C347.695 58.9641 349.207 63.1552 352.23 66.5447C355.345 69.98 359.376 71.6977 364.322 71.6977C369.773 71.6977 373.873 69.6823 376.621 65.6515ZM365.009 67.0256C361.345 67.0256 358.368 65.7431 356.078 63.1781C353.925 60.7504 352.848 57.6815 352.848 53.9714C352.848 50.2612 353.925 47.1923 356.078 44.7647C358.368 42.1996 361.345 40.9171 365.009 40.9171C368.72 40.9171 371.651 42.1996 373.804 44.7647C375.865 47.1923 376.896 50.2612 376.896 53.9714C376.896 57.6815 375.865 60.7504 373.804 63.1781C371.651 65.7431 368.72 67.0256 365.009 67.0256ZM408.095 36.245H407.752C405.599 36.245 403.767 36.6115 402.255 37.3443C398.591 39.0391 396.209 41.6729 395.11 45.2456V36.7947H389.957V71.148H395.11V56.0326C395.11 52.0934 396.209 48.7038 398.408 45.864C400.744 42.8867 403.767 41.398 407.477 41.398H408.095V36.245ZM427.341 67.0256C423.951 67.0256 421.157 65.9721 418.959 63.8651C416.806 61.8039 415.546 59.1931 415.18 56.0326H443.968V53.9714C443.968 48.8871 442.456 44.696 439.433 41.398C436.227 37.9627 432.059 36.245 426.929 36.245C421.798 36.245 417.63 37.9627 414.424 41.398C411.401 44.696 409.889 48.8871 409.889 53.9714C409.889 59.0099 411.47 63.201 414.63 66.5447C417.882 69.98 422.096 71.6977 427.272 71.6977C431.349 71.6977 434.681 70.7358 437.269 68.812C439.857 66.8882 441.746 64.369 442.937 61.2543H437.303C435.288 65.1019 431.967 67.0256 427.341 67.0256ZM426.929 40.9171C430.089 40.9171 432.746 41.9019 434.898 43.8715C436.914 45.7495 438.151 48.2 438.609 51.2231H415.248C415.706 48.2 416.943 45.7495 418.959 43.8715C421.111 41.9019 423.768 40.9171 426.929 40.9171Z" fill="black"/>
<path fill-rule="evenodd" clip-rule="evenodd" d="M10.5551 0.19022H86.4406C91.8138 0.19022 96.1695 4.546 96.1695 9.91913V85.8047C96.1695 91.1778 91.8138 95.5336 86.4406 95.5336H10.5551C5.18196 95.5336 0.826172 91.1778 0.826172 85.8047V9.91913C0.826172 4.546 5.18196 0.19022 10.5551 0.19022ZM50.1248 42.6984C43.0125 42.6984 36.5394 42.0028 31.6782 40.8645C29.7746 41.647 28.6919 42.5448 28.6912 43.5008C28.6912 46.5415 39.6678 49.0064 53.2084 49.0064C61.7413 49.0064 69.2542 47.0138 73.6444 45.5286L72.3621 55.0872C68.4357 57.2436 59.8837 59.4141 49.9584 59.4141C43.932 59.4141 38.4188 58.6545 34.1341 57.5539C31.7665 58.3519 30.3837 59.3104 30.3837 60.3406C30.3837 63.1203 38.3932 65.374 50.7717 65.374C58.5732 65.374 67.4676 62.7901 71.4816 61.4323L69.9721 70.2588C66.3824 72.2297 58.9015 74.2716 49.8279 74.2716C39.8566 74.2716 31.4018 71.2692 28.411 68.9797L26.8471 59.9017H26.8496C26.8381 59.8313 26.8266 59.7609 26.8266 59.6905C26.8266 58.5522 28.4071 57.5002 31.0818 56.6427C29.0924 55.9523 27.5318 55.1908 26.5329 54.4268L24.8231 43.0196H24.8257C24.8122 42.9428 24.8001 42.8667 24.8001 42.7892C24.8001 41.7302 26.053 40.7397 28.2273 39.8893C26.4964 39.2974 25.12 38.6332 24.1864 37.9172L22.293 25.2647H22.2956C22.2815 25.1796 22.2681 25.0945 22.2681 25.0088C22.2681 21.5118 34.5135 18.6777 49.618 18.6777C58.4145 18.6777 66.2345 19.6401 71.2397 21.133C66.511 20.2339 60.4007 19.6907 53.7229 19.6907C38.7304 19.6907 26.577 22.4243 26.577 25.7971C26.577 29.1693 38.7304 31.9029 53.7229 31.9029C63.1714 31.9029 71.4893 30.817 76.3511 29.1699L74.9325 38.6485C70.5832 41.0398 61.1142 42.6984 50.1248 42.6984Z" fill="black"/>
</svg>
