<svg width="1471" height="982" viewBox="0 0 1471 982" fill="none" xmlns="http://www.w3.org/2000/svg">
<rect x="164.12" y="1.04147" width="164" height="163" stroke="#E3EEFF" stroke-opacity="0.2" stroke-width="0.828761"/>
<rect x="1.12021" y="1.04147" width="163" height="163" stroke="#E3EEFF" stroke-opacity="0.2" stroke-width="0.828761"/>
<rect x="164.12" y="164.042" width="164" height="166" stroke="#E3EEFF" stroke-opacity="0.2" stroke-width="0.828761"/>
<rect x="1.12021" y="164.042" width="163" height="166" stroke="#E3EEFF" stroke-opacity="0.2" stroke-width="0.828761"/>
<rect x="164.12" y="330.042" width="164" height="162" stroke="#E3EEFF" stroke-opacity="0.2" stroke-width="0.828761"/>
<rect x="1.12021" y="330.042" width="163" height="162" stroke="#E3EEFF" stroke-opacity="0.2" stroke-width="0.828761"/>
<rect x="164.12" y="492.042" width="164" height="163" stroke="#E3EEFF" stroke-opacity="0.2" stroke-width="0.828761"/>
<rect x="1.12021" y="492.042" width="163" height="163" stroke="#E3EEFF" stroke-opacity="0.2" stroke-width="0.828761"/>
<rect x="164.12" y="655.042" width="164" height="164" stroke="#E3EEFF" stroke-opacity="0.2" stroke-width="0.828761"/>
<rect x="164.12" y="819.042" width="164" height="162" stroke="#E3EEFF" stroke-opacity="0.2" stroke-width="0.828761"/>
<rect x="1.12021" y="655.042" width="163" height="164" stroke="#E3EEFF" stroke-opacity="0.2" stroke-width="0.828761"/>
<rect x="1.12021" y="819.042" width="163" height="162" stroke="#E3EEFF" stroke-opacity="0.2" stroke-width="0.828761"/>
<rect x="328.12" y="1.04147" width="162" height="163" stroke="#E3EEFF" stroke-opacity="0.2" stroke-width="0.828761"/>
<rect x="328.12" y="164.042" width="162" height="166" stroke="#E3EEFF" stroke-opacity="0.2" stroke-width="0.828761"/>
<rect x="328.12" y="330.042" width="162" height="162" stroke="#E3EEFF" stroke-opacity="0.2" stroke-width="0.828761"/>
<rect x="328.12" y="492.042" width="162" height="163" stroke="#E3EEFF" stroke-opacity="0.2" stroke-width="0.828761"/>
<rect x="328.12" y="655.042" width="162" height="164" stroke="#E3EEFF" stroke-opacity="0.2" stroke-width="0.828761"/>
<rect x="328.12" y="819.042" width="162" height="162" stroke="#E3EEFF" stroke-opacity="0.2" stroke-width="0.828761"/>
<rect x="490.12" y="1.04147" width="163" height="163" stroke="#E3EEFF" stroke-opacity="0.2" stroke-width="0.828761"/>
<rect x="490.12" y="164.042" width="163" height="166" stroke="#E3EEFF" stroke-opacity="0.2" stroke-width="0.828761"/>
<rect x="490.12" y="330.042" width="163" height="162" stroke="#E3EEFF" stroke-opacity="0.2" stroke-width="0.828761"/>
<rect x="490.12" y="492.042" width="163" height="163" stroke="#E3EEFF" stroke-opacity="0.2" stroke-width="0.828761"/>
<rect x="490.12" y="655.042" width="163" height="164" stroke="#E3EEFF" stroke-opacity="0.2" stroke-width="0.828761"/>
<rect x="490.12" y="819.042" width="163" height="162" stroke="#E3EEFF" stroke-opacity="0.2" stroke-width="0.828761"/>
<rect x="653.12" y="1.04147" width="163" height="163" stroke="#E3EEFF" stroke-opacity="0.2" stroke-width="0.828761"/>
<rect x="653.12" y="164.042" width="163" height="166" stroke="#E3EEFF" stroke-opacity="0.2" stroke-width="0.828761"/>
<rect x="653.12" y="330.042" width="163" height="162" stroke="#E3EEFF" stroke-opacity="0.2" stroke-width="0.828761"/>
<rect x="653.12" y="492.042" width="163" height="163" stroke="#E3EEFF" stroke-opacity="0.2" stroke-width="0.828761"/>
<rect x="653.12" y="655.042" width="163" height="164" stroke="#E3EEFF" stroke-opacity="0.2" stroke-width="0.828761"/>
<rect x="653.12" y="819.042" width="163" height="162" stroke="#E3EEFF" stroke-opacity="0.2" stroke-width="0.828761"/>
<rect x="816.12" y="1.04147" width="163" height="163" stroke="#E3EEFF" stroke-opacity="0.2" stroke-width="0.828761"/>
<rect x="816.12" y="164.042" width="163" height="166" stroke="#E3EEFF" stroke-opacity="0.2" stroke-width="0.828761"/>
<rect x="816.12" y="330.042" width="163" height="162" stroke="#E3EEFF" stroke-opacity="0.2" stroke-width="0.828761"/>
<rect x="816.12" y="492.042" width="163" height="163" stroke="#E3EEFF" stroke-opacity="0.2" stroke-width="0.828761"/>
<rect x="816.12" y="655.042" width="163" height="164" stroke="#E3EEFF" stroke-opacity="0.2" stroke-width="0.828761"/>
<rect x="816.12" y="819.042" width="163" height="162" stroke="#E3EEFF" stroke-opacity="0.2" stroke-width="0.828761"/>
<rect x="979.12" y="1.04147" width="165" height="163" stroke="#E3EEFF" stroke-opacity="0.2" stroke-width="0.828761"/>
<rect x="979.12" y="164.042" width="165" height="166" stroke="#E3EEFF" stroke-opacity="0.2" stroke-width="0.828761"/>
<rect x="979.12" y="330.042" width="165" height="162" stroke="#E3EEFF" stroke-opacity="0.2" stroke-width="0.828761"/>
<rect x="979.12" y="492.042" width="165" height="163" stroke="#E3EEFF" stroke-opacity="0.2" stroke-width="0.828761"/>
<rect x="979.12" y="655.042" width="165" height="164" stroke="#E3EEFF" stroke-opacity="0.2" stroke-width="0.828761"/>
<rect x="979.12" y="819.042" width="165" height="162" stroke="#E3EEFF" stroke-opacity="0.2" stroke-width="0.828761"/>
<rect x="1144.12" y="1.04147" width="163" height="163" stroke="#E3EEFF" stroke-opacity="0.2" stroke-width="0.828761"/>
<rect x="1144.12" y="164.042" width="163" height="166" stroke="#E3EEFF" stroke-opacity="0.2" stroke-width="0.828761"/>
<rect x="1144.12" y="330.042" width="163" height="162" stroke="#E3EEFF" stroke-opacity="0.2" stroke-width="0.828761"/>
<rect x="1144.12" y="492.042" width="163" height="163" stroke="#E3EEFF" stroke-opacity="0.2" stroke-width="0.828761"/>
<rect x="1144.12" y="655.042" width="163" height="164" stroke="#E3EEFF" stroke-opacity="0.2" stroke-width="0.828761"/>
<rect x="1144.12" y="819.042" width="163" height="162" stroke="#E3EEFF" stroke-opacity="0.2" stroke-width="0.828761"/>
<rect x="1307.12" y="1.04147" width="163" height="163" stroke="#E3EEFF" stroke-opacity="0.2" stroke-width="0.828761"/>
<rect x="1307.12" y="164.042" width="163" height="166" stroke="#E3EEFF" stroke-opacity="0.2" stroke-width="0.828761"/>
<rect x="1307.12" y="330.042" width="163" height="162" stroke="#E3EEFF" stroke-opacity="0.2" stroke-width="0.828761"/>
<rect x="1307.12" y="492.042" width="163" height="163" stroke="#E3EEFF" stroke-opacity="0.2" stroke-width="0.828761"/>
<rect x="1307.12" y="655.042" width="163" height="164" stroke="#E3EEFF" stroke-opacity="0.2" stroke-width="0.828761"/>
<rect x="1307.12" y="819.042" width="163" height="162" stroke="#E3EEFF" stroke-opacity="0.2" stroke-width="0.828761"/>
</svg>
