<svg width="457" height="284" fill="none" xmlns="http://www.w3.org/2000/svg">
  <rect x="1.79175" y="1.53552" width="453.851" height="280.498" rx="8" fill="#fff" stroke="#3FB25D" stroke-width="2"/>
  <path d="M2.67432 9.51355c0-3.86599 3.134-7 7-7H447.758c3.866 0 7 3.13401 7 7v6.85415H2.67432V9.51355Z" fill="#239340"/>
  <path fill="#B0EED2" d="M112.778 2.51355h78.75v13.8542h-78.75z"/>
  <path fill-rule="evenodd" clip-rule="evenodd" d="M113.508 2.51355H34.7577V14.3677c0 1.1046-.8955 2-2.0001 2H2.67432v20.4167H454.758V16.3677h-339.25c-1.105 0-2-.8954-2-2V2.51355Z" fill="#B0EED2"/>
  <rect x="58.8196" y="19.2844" width="325.938" height="14.5833" rx="2" fill="#fff"/>
  <circle cx="9.96574" cy="9.80534" r="2.91667" fill="#B0EED2"/>
  <circle cx="398.977" cy="26.9408" r="4.73958" fill="#7FD3AE"/>
  <circle cx="18.716" cy="9.80534" r="2.91667" fill="#B0EED2"/>
  <circle cx="413.56" cy="26.9408" r="4.73958" fill="#7FD3AE"/>
  <circle cx="27.4653" cy="9.80534" r="2.91667" fill="#B0EED2"/>
  <circle cx="427.415" cy="26.9408" r="4.73958" fill="#7FD3AE"/>
  <path fill="#B0EED2" d="M57.3613 69.5969h144.375v125.417H57.3613zM57.3613 245.326h144.375v35.7292H57.3613zM57.3613 198.659h119.583v6.5625H57.3613zM57.3613 207.409h71.4583v4.375H57.3613zM57.3613 213.972h102.083v4.375H57.3613zM211.215 177.318h89.6875v80.2083H211.215zM310.382 177.318h89.6875v80.2083H310.382zM211.945 261.172h82.3958v6.5625H211.945zM310.382 261.172h47.3958v6.5625H310.382zM211.945 269.922h71.4583v4.375H211.945zM310.382 269.922h76.5625v4.375H310.382zM211.945 276.485h35.7292v4.375H211.945zM310.382 276.485h67.8125v4.375H310.382zM57.3613 220.534h102.083v4.375H57.3613z"/>
  <path fill="#FFF6BF" stroke="#3FB25D" d="M211.445 69.0969H400.57v100.167H211.445z"/>
  <circle cx="250.591" cy="125.014" r="3.64583" fill="#3AAF57"/>
  <circle cx="250.591" cy="125.014" r="5.33333" stroke="#3FB25D"/>
  <path d="M234.549 108.784c0-1.104.896-2 2-2h27.354c1.105 0 2 .896 2 2v5.211c0 1.105-.895 2-2 2h-11.537c-.274 0-.536.113-.725.312l-.584.615c-.407.429-1.095.413-1.481-.033l-.476-.549c-.19-.219-.465-.345-.755-.345h-11.796c-1.104 0-2-.895-2-2v-5.211Z" fill="#FDBC15"/>
  <path d="M300.414 83.7465h-1.837l-.279.8485h-1.513l1.888-5.2022h1.66l1.88 5.2022h-1.52l-.279-.8485Zm-.36-1.1069-.558-1.6824-.551 1.6824h1.109ZM305.305 84.595l-1.029-1.9185h-.154v1.9185h-1.44v-5.2022h2.27c.416 0 .769.0738 1.058.2214.289.1427.507.3419.654.5977.146.2509.22.5338.22.8486 0 .3542-.098.6666-.294.9371-.191.2657-.472.4551-.845.5682l1.168 2.0292h-1.608Zm-1.183-2.9073h.713c.195 0 .342-.0467.44-.1402.098-.0935.147-.2287.147-.4058 0-.1673-.051-.2977-.154-.3911-.098-.0984-.242-.1476-.433-.1476h-.713v1.0847ZM307.362 81.9829c0-.5116.106-.9667.316-1.3651.216-.4034.519-.7158.911-.9372.392-.2263.842-.3394 1.351-.3394.647 0 1.19.1746 1.631.5239.441.3444.725.8141.852 1.4094h-1.55c-.093-.1968-.223-.3468-.389-.4501-.162-.1033-.35-.155-.566-.155-.333 0-.599.1205-.8.3616-.196.2361-.294.5534-.294.9519 0 .4034.098.7256.294.9666.201.2362.467.3542.8.3542.216 0 .404-.0516.566-.1549.166-.1033.296-.2534.389-.4502h1.55c-.127.5953-.411 1.0675-.852 1.4168-.441.3444-.984.5165-1.631.5165-.509 0-.959-.1106-1.351-.332-.392-.2263-.695-.5387-.911-.9371-.21-.4034-.316-.8634-.316-1.3799ZM316.381 83.7465h-1.837l-.279.8485h-1.513l1.888-5.2022h1.66l1.88 5.2022h-1.52l-.279-.8485Zm-.36-1.1069-.558-1.6824-.551 1.6824h1.109ZM320.699 79.3928c.543 0 1.018.1107 1.425.3321.411.2164.727.5214.947.915.221.3935.331.8437.331 1.3504 0 .5017-.113.9494-.338 1.3429-.22.3936-.536.7035-.948.9298-.406.2214-.878.332-1.417.332h-2.049v-5.2022h2.049Zm-.11 3.9257c.421 0 .751-.1156.991-.3468.24-.2312.36-.5584.36-.9814 0-.428-.12-.7576-.36-.9888-.24-.2362-.57-.3542-.991-.3542h-.5v2.6712h.5ZM325.49 80.5513v.8486h1.653v1.0995h-1.653v.9371h1.874v1.1585h-3.313v-5.2022h3.313v1.1585h-1.874Z" fill="#000"/>
  <path fill-rule="evenodd" clip-rule="evenodd" d="M294.309 81.6145c.003-.0382.004-.0766.004-.1152 0-1.3953-2.115-2.5264-4.726-2.5264-2.61 0-4.726 1.1311-4.726 2.5264 0 .0386.002.077.005.1152-.003.0381-.005.0766-.005.1152 0 .0386.002.077.005.1152-.003.0382-.005.0766-.005.1152 0 .0386.002.077.005.1152-.003.0382-.005.0766-.005.1152 0 .0386.002.077.005.1152-.003.0382-.005.0766-.005.1152 0 .0386.002.077.005.1152-.003.0382-.005.0766-.005.1152 0 .0386.002.0771.005.1152-.003.0382-.005.0766-.005.1152 0 .0387.002.0771.005.1153-.003.0381-.005.0766-.005.1152 0 1.3952 2.116 2.5263 4.726 2.5263 2.611 0 4.726-1.1311 4.726-2.5263 0-.0386-.001-.0771-.004-.1152.003-.0382.004-.0766.004-.1153 0-.0386-.001-.077-.004-.1152.003-.0381.004-.0766.004-.1152 0-.0386-.001-.077-.004-.1152.003-.0382.004-.0766.004-.1152 0-.0386-.001-.077-.004-.1152.003-.0382.004-.0766.004-.1152 0-.0386-.001-.077-.004-.1152.003-.0382.004-.0766.004-.1152 0-.0386-.001-.077-.004-.1152.003-.0382.004-.0766.004-.1152 0-.0386-.001-.0771-.004-.1152Z" fill="#000"/>
  <path d="M294.086 81.5017c0 .574-.438 1.146-1.264 1.5879-.816.4367-1.959.7138-3.235.7138-1.275 0-2.418-.2771-3.234-.7138-.826-.4419-1.265-1.0139-1.265-1.5879 0-.574.439-1.1461 1.265-1.588.816-.4367 1.959-.7138 3.234-.7138 1.276 0 2.419.2771 3.235.7138.826.4419 1.264 1.014 1.264 1.588Z" fill="#FFF6BF" stroke="#000" stroke-width=".454081"/>
  <path fill-rule="evenodd" clip-rule="evenodd" d="M293.107 80.3171c.002-.0284.003-.0571.003-.0859 0-1.0406-1.577-1.8843-3.523-1.8843-1.945 0-3.523.8437-3.523 1.8843 0 .0288.001.0575.004.0859-.003.0285-.004.0572-.004.086 0 .0288.001.0574.004.0859-.003.0285-.004.0571-.004.0859 0 .0288.001.0575.004.086-.003.0284-.004.0571-.004.0859 0 .0288.001.0574.004.0859-.003.0285-.004.0571-.004.0859 0 .0288.001.0575.004.086-.003.0285-.004.0571-.004.0859 0 .0288.001.0575.004.0859-.003.0285-.004.0572-.004.086 0 .0288.001.0574.004.0859-.003.0285-.004.0571-.004.0859 0 1.0407 1.578 1.8843 3.523 1.8843 1.946 0 3.523-.8436 3.523-1.8843 0-.0288-.001-.0574-.003-.0859.002-.0285.003-.0571.003-.0859 0-.0288-.001-.0575-.003-.086.002-.0284.003-.0571.003-.0859 0-.0288-.001-.0574-.003-.0859.002-.0285.003-.0572.003-.086 0-.0288-.001-.0574-.003-.0859.002-.0285.003-.0571.003-.0859 0-.0288-.001-.0575-.003-.0859.002-.0285.003-.0572.003-.086 0-.0288-.001-.0574-.003-.0859.002-.0285.003-.0571.003-.0859 0-.0288-.001-.0575-.003-.086Z" fill="#000"/>
  <path d="M292.883 80.2312c0 .396-.303.8069-.912 1.1322-.598.3201-1.441.5251-2.384.5251-.943 0-1.785-.205-2.384-.5251-.608-.3253-.912-.7362-.912-1.1322 0-.396.304-.8069.912-1.1322.599-.3201 1.441-.525 2.384-.525.943 0 1.786.2049 2.384.525.609.3253.912.7362.912 1.1322Z" fill="#FFF6BF" stroke="#000" stroke-width=".454081"/>
  <circle cx="366.528" cy="142.514" r="3.64583" fill="#3AAF57"/>
  <circle cx="366.529" cy="142.514" r="5.33333" stroke="#3FB25D"/>
  <path d="M329.341 138.68c0-1.104.895-2 2-2h23.658c1.105 0 2 .896 2 2v1.951c0 .271.11.531.305.719l.46.445c.407.393.407 1.044 0 1.437l-.46.445c-.195.188-.305.448-.305.719v1.951c0 1.104-.895 2-2 2h-23.658c-1.105 0-2-.896-2-2v-7.667Z" fill="#FDBC15"/>
</svg>
