<svg width="180" height="31" viewBox="0 0 180 31" fill="none" xmlns="http://www.w3.org/2000/svg">
<path d="M65.8647 22.8677H58.0878L56.9057 26.4616H50.4976L58.4922 4.42969H65.5225L73.486 26.4616H67.0467L65.8647 22.8677ZM64.3404 18.1801L61.9762 11.0549L59.6432 18.1801H64.3404Z" fill="white"/>
<path d="M86.5786 26.4616L82.2236 18.3363H81.5703V26.4616H75.4732V4.42969H85.0854C86.8482 4.42969 88.3414 4.7422 89.5649 5.36722C90.7885 5.9714 91.7113 6.81518 92.3335 7.89854C92.9556 8.96107 93.2667 10.159 93.2667 11.4924C93.2667 12.9924 92.8519 14.3154 92.0224 15.4613C91.2136 16.5863 90.0212 17.3884 88.4451 17.8676L93.3911 26.4616H86.5786ZM81.5703 14.1487H84.5877C85.4173 14.1487 86.0394 13.9508 86.4542 13.555C86.8689 13.1591 87.0763 12.5862 87.0763 11.8362C87.0763 11.1278 86.8586 10.5757 86.4231 10.1799C86.0083 9.76318 85.3965 9.55484 84.5877 9.55484H81.5703V14.1487Z" fill="white"/>
<path d="M95.2928 15.3988C95.2928 13.232 95.7387 11.3049 96.6305 9.61734C97.5429 7.90896 98.8287 6.586 100.488 5.64848C102.147 4.69012 104.055 4.21094 106.212 4.21094C108.949 4.21094 111.251 4.95054 113.117 6.42975C114.984 7.88812 116.187 9.87776 116.726 12.3987H110.162C109.768 11.5653 109.219 10.9299 108.514 10.4924C107.829 10.0549 107.031 9.8361 106.118 9.8361C104.708 9.8361 103.578 10.3465 102.728 11.3674C101.898 12.3674 101.483 13.7112 101.483 15.3988C101.483 17.1071 101.898 18.4718 102.728 19.4926C103.578 20.4926 104.708 20.9927 106.118 20.9927C107.031 20.9927 107.829 20.7739 108.514 20.3364C109.219 19.8989 109.768 19.2634 110.162 18.4301H116.726C116.187 20.951 114.984 22.9511 113.117 24.4303C111.251 25.8886 108.949 26.6178 106.212 26.6178C104.055 26.6178 102.147 26.1491 100.488 25.2115C98.8287 24.2532 97.5429 22.9302 96.6305 21.2427C95.7387 19.5343 95.2928 17.5863 95.2928 15.3988Z" fill="white"/>
<path d="M133.487 22.8677H125.71L124.528 26.4616H118.12L126.115 4.42969H133.145L141.108 26.4616H134.669L133.487 22.8677ZM131.963 18.1801L129.599 11.0549L127.266 18.1801H131.963Z" fill="white"/>
<path d="M151.775 4.42969C154.077 4.42969 156.088 4.89846 157.809 5.83598C159.551 6.75268 160.889 8.04438 161.822 9.71109C162.756 11.3778 163.222 13.2841 163.222 15.43C163.222 17.5551 162.745 19.451 161.791 21.1177C160.858 22.7844 159.52 24.0969 157.778 25.0553C156.057 25.9928 154.056 26.4616 151.775 26.4616H143.096V4.42969H151.775ZM151.308 21.0552C153.091 21.0552 154.491 20.5656 155.507 19.5864C156.524 18.6072 157.032 17.2217 157.032 15.43C157.032 13.6175 156.524 12.2216 155.507 11.2424C154.491 10.2424 153.091 9.74234 151.308 9.74234H149.193V21.0552H151.308Z" fill="white"/>
<path d="M172.068 9.33608V12.9299H179.067V17.5863H172.068V21.5552H180V26.4616H165.971V4.42969H180V9.33608H172.068Z" fill="white"/>
<path fill-rule="evenodd" clip-rule="evenodd" d="M40.0104 13.8386C40.024 13.6769 40.0309 13.5142 40.0309 13.3507C40.0309 7.44163 31.0697 2.65137 20.0154 2.65137C8.96122 2.65137 0 7.44163 0 13.3507C0 13.5142 0.00686246 13.6769 0.0204418 13.8386C0.00686246 14.0004 0 14.163 0 14.3266C0 14.4901 0.00686246 14.6527 0.0204418 14.8145C0.00686246 14.9762 0 15.1389 0 15.3024C0 15.4659 0.00686246 15.6286 0.0204418 15.7903C0.00686246 15.952 0 16.1147 0 16.2782C0 16.4418 0.00686246 16.6044 0.0204418 16.7661C0.00686246 16.9279 0 17.0905 0 17.2541C0 17.4176 0.00686246 17.5803 0.0204418 17.742C0.00686246 17.9037 0 18.0664 0 18.2299C0 18.3934 0.00686246 18.5561 0.0204418 18.7178C0.00686246 18.8796 0 19.0422 0 19.2057C0 19.3693 0.00686246 19.5319 0.0204418 19.6937C0.00686246 19.8554 0 20.0181 0 20.1816C0 26.0907 8.96122 30.8809 20.0154 30.8809C31.0697 30.8809 40.0309 26.0907 40.0309 20.1816C40.0309 20.0181 40.024 19.8554 40.0104 19.6937C40.024 19.5319 40.0309 19.3693 40.0309 19.2057C40.0309 19.0422 40.024 18.8796 40.0104 18.7178C40.024 18.5561 40.0309 18.3934 40.0309 18.2299C40.0309 18.0664 40.024 17.9037 40.0104 17.742C40.024 17.5803 40.0309 17.4176 40.0309 17.2541C40.0309 17.0905 40.024 16.9279 40.0104 16.7661C40.024 16.6044 40.0309 16.4418 40.0309 16.2782C40.0309 16.1147 40.024 15.952 40.0104 15.7903C40.024 15.6286 40.0309 15.4659 40.0309 15.3024C40.0309 15.1389 40.024 14.9762 40.0104 14.8145C40.024 14.6527 40.0309 14.4901 40.0309 14.3266C40.0309 14.163 40.024 14.0004 40.0104 13.8386Z" fill="white"/>
<path d="M39.6618 13.3609C39.6618 16.1162 37.5686 18.6958 33.9943 20.6083C30.4357 22.5124 25.494 23.7014 20.0154 23.7014C14.5368 23.7014 9.59518 22.5124 6.03652 20.6083C2.46228 18.6958 0.369106 16.1162 0.369106 13.3609C0.369106 10.6056 2.46228 8.02602 6.03652 6.11357C9.59518 4.20946 14.5368 3.02047 20.0154 3.02047C25.494 3.02047 30.4357 4.20946 33.9943 6.11357C37.5686 8.02602 39.6618 10.6056 39.6618 13.3609Z" fill="black" stroke="white" stroke-width="0.738212"/>
<path fill-rule="evenodd" clip-rule="evenodd" d="M34.9202 8.3441C34.9303 8.22347 34.9355 8.10214 34.9355 7.98018C34.9355 3.57285 28.2553 0 20.0149 0C11.7744 0 5.09427 3.57285 5.09427 7.98018C5.09427 8.10214 5.09938 8.22347 5.10951 8.3441C5.09938 8.46472 5.09427 8.58605 5.09427 8.70801C5.09427 8.82998 5.09938 8.9513 5.10951 9.07193C5.09938 9.19256 5.09427 9.31388 5.09427 9.43585C5.09427 9.55781 5.09938 9.67914 5.10951 9.79976C5.09938 9.92039 5.09427 10.0417 5.09427 10.1637C5.09427 10.2856 5.09938 10.407 5.10951 10.5276C5.09938 10.6482 5.09427 10.7696 5.09427 10.8915C5.09427 11.0135 5.09938 11.1348 5.10951 11.2554C5.09938 11.3761 5.09427 11.4974 5.09427 11.6193C5.09427 11.7413 5.09938 11.8626 5.10951 11.9833C5.09938 12.1039 5.09427 12.2252 5.09427 12.3472C5.09427 12.4691 5.09938 12.5905 5.10951 12.7111C5.09938 12.8317 5.09427 12.9531 5.09427 13.075C5.09427 17.4823 11.7744 21.0552 20.0149 21.0552C28.2553 21.0552 34.9355 17.4823 34.9355 13.075C34.9355 12.9531 34.9303 12.8317 34.9202 12.7111C34.9303 12.5905 34.9355 12.4691 34.9355 12.3472C34.9355 12.2252 34.9303 12.1039 34.9202 11.9833C34.9303 11.8626 34.9355 11.7413 34.9355 11.6193C34.9355 11.4974 34.9303 11.3761 34.9202 11.2554C34.9303 11.1348 34.9355 11.0135 34.9355 10.8915C34.9355 10.7696 34.9303 10.6482 34.9202 10.5276C34.9303 10.407 34.9355 10.2856 34.9355 10.1637C34.9355 10.0417 34.9303 9.92039 34.9202 9.79976C34.9303 9.67914 34.9355 9.55781 34.9355 9.43585C34.9355 9.31388 34.9303 9.19256 34.9202 9.07193C34.9303 8.9513 34.9355 8.82998 34.9355 8.70801C34.9355 8.58605 34.9303 8.46472 34.9202 8.3441Z" fill="white"/>
<path d="M34.5664 7.98018C34.5664 9.98171 33.0435 11.879 30.3912 13.2975C27.7546 14.7078 24.0866 15.5913 20.0149 15.5913C15.9431 15.5913 12.2752 14.7078 9.63849 13.2975C6.98619 11.879 5.46337 9.98171 5.46337 7.98018C5.46337 5.97865 6.98619 4.08138 9.63849 2.66282C12.2752 1.2526 15.9431 0.369106 20.0149 0.369106C24.0866 0.369106 27.7546 1.2526 30.3912 2.66282C33.0435 4.08138 34.5664 5.97865 34.5664 7.98018Z" fill="black" stroke="white" stroke-width="0.738212"/>
</svg>
