<svg width="337" height="168" viewBox="0 0 337 168" fill="none" xmlns="http://www.w3.org/2000/svg">
<path d="M241.264 50.7031H238.249H236.126H235.871C228.78 50.7031 220.394 51.0852 210.565 50.7031H208.994C206.871 50.7031 202.37 50.2997 202.306 50.2997L199.164 50.0237C194.918 49.6628 190.544 49.1108 185.895 48.3253L182.456 47.7308L180.587 47.4548C179.399 47.2213 174.388 46.1173 173.263 45.8413C172.138 45.5653 171.31 45.3743 170.312 45.1195C168.529 44.6737 166.724 44.1641 164.877 43.6334L162.329 42.8691C160.61 42.3808 158.869 41.8076 157.085 41.2131L153.901 40.1304C152.351 39.5996 150.801 39.0264 149.209 38.4319L184.218 12.9555L241.264 50.7031Z" fill="black"/>
<path d="M100.783 158.744C95.1213 158.744 91.0026 157.046 88.4266 153.649C85.8507 150.252 84.5344 144.895 84.4778 137.578V126.962C84.4778 119.489 85.7941 114.076 88.4266 110.721C91.0592 107.367 95.2628 105.69 101.037 105.69C104.678 105.487 108.284 106.495 111.292 108.556C112.458 109.337 113.434 110.37 114.146 111.579C114.859 112.788 115.291 114.142 115.41 115.541C115.434 115.659 115.498 115.765 115.591 115.842C115.683 115.919 115.799 115.963 115.92 115.965H124.752C124.893 115.965 125.028 115.909 125.127 115.81C125.227 115.71 125.283 115.575 125.283 115.434C125.247 111.192 123.582 107.126 120.633 104.076C116.472 99.4055 109.763 97.0701 100.507 97.0701C91.9297 97.0701 85.4332 99.5753 81.0173 104.586C76.6013 109.596 74.4005 117.069 74.4146 127.005V139.616C74.4146 148.816 76.6226 155.744 81.0385 160.4C85.4544 165.057 91.958 167.392 100.549 167.406C110.91 167.406 118.05 164.476 121.971 158.617C123.141 156.955 124.064 155.131 124.709 153.203C125.21 151.254 125.46 149.25 125.452 147.237C125.452 147.1 125.399 146.968 125.304 146.869C125.209 146.77 125.08 146.712 124.943 146.707H115.941C115.821 146.709 115.705 146.752 115.612 146.83C115.519 146.907 115.456 147.013 115.432 147.131C114.052 154.222 109.296 158.744 100.783 158.744Z" fill="black"/>
<path d="M276.527 106.136C276.662 106.136 276.792 106.082 276.888 105.986C276.983 105.891 277.037 105.761 277.037 105.626V97.5797C277.04 97.512 277.029 97.4444 277.004 97.3812C276.98 97.318 276.942 97.2606 276.894 97.2127C276.846 97.1648 276.789 97.1273 276.726 97.1028C276.663 97.0783 276.595 97.0671 276.527 97.0702H261.666V80.6166C261.666 80.4815 261.612 80.3519 261.517 80.2564C261.421 80.1608 261.292 80.1071 261.156 80.1071L252.112 82.8671C251.977 82.8671 251.848 82.9207 251.752 83.0163C251.656 83.1118 251.603 83.2414 251.603 83.3766V97.0702H241.731C241.596 97.0702 241.466 97.1238 241.37 97.2194C241.275 97.3149 241.221 97.4445 241.221 97.5797V105.626C241.221 105.761 241.275 105.891 241.37 105.986C241.466 106.082 241.596 106.136 241.731 106.136H251.603V148.596C251.603 154.456 252.919 158.744 255.552 161.462C258.184 164.179 262.423 165.566 268.269 165.623H276.548C276.684 165.623 276.813 165.569 276.909 165.474C277.004 165.378 277.058 165.249 277.058 165.113V157.216C277.058 157.081 277.004 156.951 276.909 156.855C276.813 156.76 276.684 156.706 276.548 156.706H269.16C268.115 156.821 267.058 156.689 266.073 156.32C265.088 155.951 264.204 155.356 263.492 154.583C262.149 152.342 261.547 149.734 261.772 147.131V106.136H276.527Z" fill="black"/>
<path d="M185.917 115.392C185.871 114.521 185.721 113.659 185.471 112.823C184.589 109.804 183.093 106.999 181.076 104.586C176.66 99.5753 170.164 97.0701 161.587 97.0701C152.33 97.0701 145.614 99.4055 141.439 104.076C138.614 107.149 137.092 111.198 137.193 115.371C137.193 115.511 137.249 115.646 137.348 115.746C137.448 115.846 137.583 115.901 137.724 115.901H146.555C146.679 115.898 146.798 115.852 146.891 115.77C146.984 115.689 147.045 115.578 147.065 115.456C147.124 114.076 147.499 112.729 148.162 111.518C148.824 110.307 149.756 109.264 150.886 108.471C153.904 106.414 157.515 105.407 161.162 105.605C166.937 105.605 171.14 107.282 173.773 110.636C174.985 112.232 175.721 114.138 175.896 116.135C175.896 116.836 175.896 117.557 175.896 118.258V125.774C173.263 125.434 170.631 125.179 167.998 125.009C165.366 124.839 163.2 124.754 161.502 124.754C152.231 124.754 145.43 126.495 141.099 129.977C136.768 133.459 134.603 138.986 134.603 146.558C134.603 153.635 136.662 158.794 140.781 162.035C144.411 164.837 152.033 166.281 159.718 166.706C161.745 166.794 163.775 166.723 165.79 166.493C172.267 165.932 178.649 164.57 184.791 162.438C185.119 162.341 185.408 162.143 185.618 161.873C185.827 161.602 185.947 161.273 185.959 160.931V118.088C186.023 117.112 185.98 116.199 185.917 115.392ZM150.695 156.43C149.595 156.063 148.589 155.458 147.748 154.658C146.908 153.858 146.254 152.883 145.834 151.802C145.229 150.107 144.941 148.315 144.984 146.516C144.984 141.746 146.237 138.342 148.742 136.304C151.247 134.266 155.777 133.247 162.33 133.247C163.752 133.247 172.223 133.968 175.386 134.329C175.544 134.345 175.69 134.419 175.796 134.537C175.902 134.655 175.96 134.808 175.959 134.966V154.923C175.959 155.062 175.916 155.197 175.837 155.311C175.757 155.425 175.644 155.512 175.514 155.56C167.56 158.565 158.84 158.871 150.695 156.43V156.43Z" fill="black"/>
<path d="M336.482 115.392C336.416 114.548 336.252 113.714 335.993 112.908C335.112 109.889 333.616 107.084 331.599 104.671C327.183 99.6602 320.686 97.1551 312.109 97.1551C302.825 97.1551 296.109 99.4904 291.962 104.161C289.137 107.234 287.615 111.283 287.716 115.456C287.716 115.596 287.772 115.731 287.871 115.831C287.971 115.93 288.106 115.986 288.246 115.986H297.078C297.202 115.983 297.32 115.937 297.413 115.855C297.506 115.774 297.568 115.663 297.588 115.541C297.647 114.161 298.022 112.814 298.684 111.603C299.347 110.392 300.279 109.349 301.409 108.556C304.426 106.496 308.038 105.489 311.685 105.69C317.459 105.69 321.663 107.367 324.296 110.721C325.518 112.312 326.255 114.221 326.419 116.22C326.419 116.921 326.525 117.642 326.525 118.343V125.858C323.892 125.519 321.26 125.264 318.627 125.094C315.995 124.924 313.808 124.839 312.109 124.839C302.853 124.839 296.059 126.58 291.728 130.062C287.397 133.544 285.239 139.071 285.253 146.643C285.253 153.72 287.312 158.879 291.431 162.12C295.061 164.922 302.683 166.366 310.368 166.791C312.395 166.879 314.425 166.808 316.44 166.578C322.917 166.017 329.3 164.655 335.442 162.523C335.769 162.426 336.058 162.228 336.268 161.957C336.477 161.687 336.597 161.358 336.609 161.016V118.088C336.588 117.112 336.546 116.199 336.482 115.392ZM301.261 156.43C300.16 156.063 299.154 155.458 298.314 154.658C297.473 153.858 296.82 152.883 296.399 151.802C295.794 150.107 295.507 148.315 295.55 146.516C295.55 141.746 296.802 138.342 299.307 136.304C301.813 134.266 306.342 133.247 312.895 133.247C314.317 133.247 322.788 133.968 325.952 134.329C326.107 134.35 326.251 134.425 326.356 134.542C326.461 134.659 326.521 134.809 326.525 134.966V154.923C326.519 155.06 326.474 155.194 326.395 155.306C326.316 155.419 326.206 155.507 326.079 155.56C318.126 158.565 309.405 158.871 301.261 156.43V156.43Z" fill="black"/>
<path d="M232.645 106.9C232.77 106.894 232.889 106.84 232.976 106.749C233.063 106.658 233.112 106.537 233.112 106.411V106.029V97.5584C233.112 95.86 221.456 98.4713 220.374 98.811C217.926 99.3637 215.626 100.439 213.633 101.964C211.639 103.488 209.999 105.425 208.824 107.643V99.5965C208.824 99.524 208.81 99.4523 208.782 99.3853C208.755 99.3183 208.714 99.2575 208.663 99.2062C208.611 99.1549 208.55 99.1143 208.484 99.0865C208.417 99.0588 208.345 99.0445 208.272 99.0445H199.504C199.358 99.0445 199.217 99.1027 199.114 99.2062C199.01 99.3097 198.952 99.4501 198.952 99.5965V165.113C198.952 165.262 199.01 165.404 199.112 165.511C199.215 165.618 199.356 165.681 199.504 165.687H208.548C208.697 165.681 208.837 165.618 208.94 165.511C209.043 165.404 209.1 165.262 209.1 165.113V128.406C209.004 124.093 209.875 119.813 211.648 115.88C212.762 113.39 214.54 111.255 216.787 109.709C219.034 108.162 221.663 107.264 224.386 107.112C226.351 106.865 228.329 106.744 230.309 106.751L232.645 106.9Z" fill="black"/>
<path d="M236.232 54.7156C100.783 96.2846 0.766602 54.7156 0.766602 54.7156L75.2851 0.748108C103.564 21.4901 128.149 34.3557 149.209 42.2959C150.801 42.8903 152.351 43.4635 153.901 43.9943L157.086 45.077C158.869 45.6715 160.61 46.2447 162.329 46.733L164.877 47.4973C166.724 48.0281 168.529 48.5376 170.312 48.9834C171.31 49.2382 172.286 49.493 173.263 49.7053C174.24 49.9176 181.904 51.5735 182.562 51.7009L186.001 52.2954C190.651 53.0809 195.067 53.6329 199.27 53.9938L202.412 54.2698C202.412 54.2698 206.977 54.5882 209.1 54.6732H210.671C220.501 55.0341 228.887 54.6732 235.978 54.6732L236.232 54.7156Z" fill="black"/>
</svg>
