<svg width="770" height="1538" viewBox="0 0 770 1538" fill="none" xmlns="http://www.w3.org/2000/svg">
<rect x="1.20532" y="0.561157" width="85.2164" height="85.2164" stroke="#E3EEFF"/>
<rect x="1.20532" y="85.7776" width="85.2164" height="85.2164" stroke="#E3EEFF"/>
<rect x="1.20532" y="512.912" width="85.2164" height="85.2164" stroke="#E3EEFF"/>
<rect x="1.20532" y="598.128" width="85.2164" height="85.2164" stroke="#E3EEFF"/>
<rect x="1.20532" y="683.345" width="85.2164" height="85.2164" stroke="#E3EEFF"/>
<rect x="1.20532" y="170.994" width="85.2164" height="86.2685" stroke="#E3EEFF"/>
<rect x="1.20532" y="257.263" width="85.2164" height="85.2164" stroke="#E3EEFF"/>
<rect x="1.20532" y="342.479" width="85.2164" height="85.2164" stroke="#E3EEFF"/>
<rect x="1.20532" y="427.695" width="85.2164" height="85.2164" stroke="#E3EEFF"/>
<rect x="86.4214" y="0.561157" width="85.2164" height="85.2164" stroke="#E3EEFF"/>
<rect x="86.4214" y="85.7776" width="85.2164" height="85.2164" stroke="#E3EEFF"/>
<rect x="86.4214" y="512.912" width="85.2164" height="85.2164" stroke="#E3EEFF"/>
<rect x="86.4214" y="598.128" width="85.2164" height="85.2164" stroke="#E3EEFF"/>
<rect x="86.4214" y="683.345" width="85.2164" height="85.2164" stroke="#E3EEFF"/>
<rect x="86.4214" y="170.994" width="85.2164" height="86.2685" stroke="#E3EEFF"/>
<rect x="86.4214" y="257.263" width="85.2164" height="85.2164" stroke="#E3EEFF"/>
<rect x="86.4214" y="342.479" width="85.2164" height="85.2164" stroke="#E3EEFF"/>
<rect x="86.4214" y="427.695" width="85.2164" height="85.2164" stroke="#E3EEFF"/>
<rect x="171.638" y="0.561157" width="85.2164" height="85.2164" stroke="#E3EEFF"/>
<rect x="171.638" y="85.7776" width="85.2164" height="85.2164" stroke="#E3EEFF"/>
<rect x="171.638" y="512.912" width="85.2164" height="85.2164" stroke="#E3EEFF"/>
<rect x="171.638" y="598.128" width="85.2164" height="85.2164" stroke="#E3EEFF"/>
<rect x="171.638" y="683.345" width="85.2164" height="85.2164" stroke="#E3EEFF"/>
<rect x="171.638" y="170.994" width="85.2164" height="86.2685" stroke="#E3EEFF"/>
<rect x="171.638" y="257.263" width="85.2164" height="85.2164" stroke="#E3EEFF"/>
<rect x="171.638" y="342.479" width="85.2164" height="85.2164" stroke="#E3EEFF"/>
<rect x="171.638" y="427.695" width="85.2164" height="85.2164" stroke="#E3EEFF"/>
<rect x="256.854" y="0.561157" width="85.2164" height="85.2164" stroke="#E3EEFF"/>
<rect x="256.854" y="85.7776" width="85.2164" height="85.2164" stroke="#E3EEFF"/>
<rect x="256.854" y="512.912" width="85.2164" height="85.2164" stroke="#E3EEFF"/>
<rect x="256.854" y="598.128" width="85.2164" height="85.2164" stroke="#E3EEFF"/>
<rect x="256.854" y="683.345" width="85.2164" height="85.2164" stroke="#E3EEFF"/>
<rect x="256.854" y="170.994" width="85.2164" height="86.2685" stroke="#E3EEFF"/>
<rect x="256.854" y="257.263" width="85.2164" height="85.2164" stroke="#E3EEFF"/>
<rect x="256.854" y="342.479" width="85.2164" height="85.2164" stroke="#E3EEFF"/>
<rect x="256.854" y="427.695" width="85.2164" height="85.2164" stroke="#E3EEFF"/>
<rect x="342.071" y="0.561157" width="85.2164" height="85.2164" stroke="#E3EEFF"/>
<rect x="342.071" y="85.7776" width="85.2164" height="85.2164" stroke="#E3EEFF"/>
<rect x="342.071" y="512.912" width="85.2164" height="85.2164" stroke="#E3EEFF"/>
<rect x="342.071" y="598.128" width="85.2164" height="85.2164" stroke="#E3EEFF"/>
<rect x="342.071" y="683.345" width="85.2164" height="85.2164" stroke="#E3EEFF"/>
<rect x="342.071" y="170.994" width="85.2164" height="86.2685" stroke="#E3EEFF"/>
<rect x="342.071" y="257.263" width="85.2164" height="85.2164" stroke="#E3EEFF"/>
<rect x="342.071" y="342.479" width="85.2164" height="85.2164" stroke="#E3EEFF"/>
<rect x="342.071" y="427.695" width="85.2164" height="85.2164" stroke="#E3EEFF"/>
<rect x="427.287" y="0.561157" width="86.2685" height="85.2164" stroke="#E3EEFF"/>
<rect x="427.287" y="85.7776" width="86.2685" height="85.2164" stroke="#E3EEFF"/>
<rect x="427.287" y="512.912" width="86.2685" height="85.2164" stroke="#E3EEFF"/>
<rect x="427.287" y="598.128" width="86.2685" height="85.2164" stroke="#E3EEFF"/>
<rect x="427.287" y="683.345" width="86.2685" height="85.2164" stroke="#E3EEFF"/>
<rect x="427.287" y="170.994" width="86.2685" height="86.2685" stroke="#E3EEFF"/>
<rect x="427.287" y="257.263" width="86.2685" height="85.2164" stroke="#E3EEFF"/>
<rect x="427.287" y="342.479" width="86.2685" height="85.2164" stroke="#E3EEFF"/>
<rect x="427.287" y="427.695" width="86.2685" height="85.2164" stroke="#E3EEFF"/>
<rect x="513.556" y="0.561157" width="85.2164" height="85.2164" stroke="#E3EEFF"/>
<rect x="513.556" y="85.7776" width="85.2164" height="85.2164" stroke="#E3EEFF"/>
<rect x="513.556" y="512.912" width="85.2164" height="85.2164" stroke="#E3EEFF"/>
<rect x="513.556" y="598.128" width="85.2164" height="85.2164" stroke="#E3EEFF"/>
<rect x="513.556" y="683.345" width="85.2164" height="85.2164" stroke="#E3EEFF"/>
<rect x="513.556" y="170.994" width="85.2164" height="86.2685" stroke="#E3EEFF"/>
<rect x="513.556" y="257.263" width="85.2164" height="85.2164" stroke="#E3EEFF"/>
<rect x="513.556" y="342.479" width="85.2164" height="85.2164" stroke="#E3EEFF"/>
<rect x="513.556" y="427.695" width="85.2164" height="85.2164" stroke="#E3EEFF"/>
<rect x="598.772" y="0.561157" width="85.2164" height="85.2164" stroke="#E3EEFF"/>
<rect x="598.772" y="85.7776" width="85.2164" height="85.2164" stroke="#E3EEFF"/>
<rect x="598.772" y="512.912" width="85.2164" height="85.2164" stroke="#E3EEFF"/>
<rect x="598.772" y="598.128" width="85.2164" height="85.2164" stroke="#E3EEFF"/>
<rect x="598.772" y="683.345" width="85.2164" height="85.2164" stroke="#E3EEFF"/>
<rect x="598.772" y="170.994" width="85.2164" height="86.2685" stroke="#E3EEFF"/>
<rect x="598.772" y="257.263" width="85.2164" height="85.2164" stroke="#E3EEFF"/>
<rect x="598.772" y="342.479" width="85.2164" height="85.2164" stroke="#E3EEFF"/>
<rect x="598.772" y="427.695" width="85.2164" height="85.2164" stroke="#E3EEFF"/>
<rect x="683.989" y="0.561157" width="85.2164" height="85.2164" stroke="#E3EEFF"/>
<rect x="683.989" y="85.7776" width="85.2164" height="85.2164" stroke="#E3EEFF"/>
<rect x="683.989" y="512.912" width="85.2164" height="85.2164" stroke="#E3EEFF"/>
<rect x="683.989" y="598.128" width="85.2164" height="85.2164" stroke="#E3EEFF"/>
<rect x="683.989" y="683.345" width="85.2164" height="85.2164" stroke="#E3EEFF"/>
<rect x="683.989" y="170.994" width="85.2164" height="86.2685" stroke="#E3EEFF"/>
<rect x="683.989" y="257.263" width="85.2164" height="85.2164" stroke="#E3EEFF"/>
<rect x="683.989" y="342.479" width="85.2164" height="85.2164" stroke="#E3EEFF"/>
<rect x="683.989" y="427.695" width="85.2164" height="85.2164" stroke="#E3EEFF"/>
<rect x="1.20532" y="768.561" width="85.2164" height="85.2164" stroke="#E3EEFF"/>
<rect x="1.20532" y="853.778" width="85.2164" height="85.2164" stroke="#E3EEFF"/>
<rect x="1.20532" y="1280.91" width="85.2164" height="85.2164" stroke="#E3EEFF"/>
<rect x="1.20532" y="1366.13" width="85.2164" height="85.2164" stroke="#E3EEFF"/>
<rect x="1.20532" y="1451.34" width="85.2164" height="85.2164" stroke="#E3EEFF"/>
<rect x="1.20532" y="938.994" width="85.2164" height="86.2685" stroke="#E3EEFF"/>
<rect x="1.20532" y="1025.26" width="85.2164" height="85.2164" stroke="#E3EEFF"/>
<rect x="1.20532" y="1110.48" width="85.2164" height="85.2164" stroke="#E3EEFF"/>
<rect x="1.20532" y="1195.7" width="85.2164" height="85.2164" stroke="#E3EEFF"/>
<rect x="86.4214" y="768.561" width="85.2164" height="85.2164" stroke="#E3EEFF"/>
<rect x="86.4214" y="853.778" width="85.2164" height="85.2164" stroke="#E3EEFF"/>
<rect x="86.4214" y="1280.91" width="85.2164" height="85.2164" stroke="#E3EEFF"/>
<rect x="86.4214" y="1366.13" width="85.2164" height="85.2164" stroke="#E3EEFF"/>
<rect x="86.4214" y="1451.34" width="85.2164" height="85.2164" stroke="#E3EEFF"/>
<rect x="86.4214" y="938.994" width="85.2164" height="86.2685" stroke="#E3EEFF"/>
<rect x="86.4214" y="1025.26" width="85.2164" height="85.2164" stroke="#E3EEFF"/>
<rect x="86.4214" y="1110.48" width="85.2164" height="85.2164" stroke="#E3EEFF"/>
<rect x="86.4214" y="1195.7" width="85.2164" height="85.2164" stroke="#E3EEFF"/>
<rect x="171.638" y="768.561" width="85.2164" height="85.2164" stroke="#E3EEFF"/>
<rect x="171.638" y="853.778" width="85.2164" height="85.2164" stroke="#E3EEFF"/>
<rect x="171.638" y="1280.91" width="85.2164" height="85.2164" stroke="#E3EEFF"/>
<rect x="171.638" y="1366.13" width="85.2164" height="85.2164" stroke="#E3EEFF"/>
<rect x="171.638" y="1451.34" width="85.2164" height="85.2164" stroke="#E3EEFF"/>
<rect x="171.638" y="938.994" width="85.2164" height="86.2685" stroke="#E3EEFF"/>
<rect x="171.638" y="1025.26" width="85.2164" height="85.2164" stroke="#E3EEFF"/>
<rect x="171.638" y="1110.48" width="85.2164" height="85.2164" stroke="#E3EEFF"/>
<rect x="171.638" y="1195.7" width="85.2164" height="85.2164" stroke="#E3EEFF"/>
<rect x="256.854" y="768.561" width="85.2164" height="85.2164" stroke="#E3EEFF"/>
<rect x="256.854" y="853.778" width="85.2164" height="85.2164" stroke="#E3EEFF"/>
<rect x="256.854" y="1280.91" width="85.2164" height="85.2164" stroke="#E3EEFF"/>
<rect x="256.854" y="1366.13" width="85.2164" height="85.2164" stroke="#E3EEFF"/>
<rect x="256.854" y="1451.34" width="85.2164" height="85.2164" stroke="#E3EEFF"/>
<rect x="256.854" y="938.994" width="85.2164" height="86.2685" stroke="#E3EEFF"/>
<rect x="256.854" y="1025.26" width="85.2164" height="85.2164" stroke="#E3EEFF"/>
<rect x="256.854" y="1110.48" width="85.2164" height="85.2164" stroke="#E3EEFF"/>
<rect x="256.854" y="1195.7" width="85.2164" height="85.2164" stroke="#E3EEFF"/>
<rect x="342.071" y="768.561" width="85.2164" height="85.2164" stroke="#E3EEFF"/>
<rect x="342.071" y="853.778" width="85.2164" height="85.2164" stroke="#E3EEFF"/>
<rect x="342.071" y="1280.91" width="85.2164" height="85.2164" stroke="#E3EEFF"/>
<rect x="342.071" y="1366.13" width="85.2164" height="85.2164" stroke="#E3EEFF"/>
<rect x="342.071" y="1451.34" width="85.2164" height="85.2164" stroke="#E3EEFF"/>
<rect x="342.071" y="938.994" width="85.2164" height="86.2685" stroke="#E3EEFF"/>
<rect x="342.071" y="1025.26" width="85.2164" height="85.2164" stroke="#E3EEFF"/>
<rect x="342.071" y="1110.48" width="85.2164" height="85.2164" stroke="#E3EEFF"/>
<rect x="342.071" y="1195.7" width="85.2164" height="85.2164" stroke="#E3EEFF"/>
<rect x="427.287" y="768.561" width="86.2685" height="85.2164" stroke="#E3EEFF"/>
<rect x="427.287" y="853.778" width="86.2685" height="85.2164" stroke="#E3EEFF"/>
<rect x="427.287" y="1280.91" width="86.2685" height="85.2164" stroke="#E3EEFF"/>
<rect x="427.287" y="1366.13" width="86.2685" height="85.2164" stroke="#E3EEFF"/>
<rect x="427.287" y="1451.34" width="86.2685" height="85.2164" stroke="#E3EEFF"/>
<rect x="427.287" y="938.994" width="86.2685" height="86.2685" stroke="#E3EEFF"/>
<rect x="427.287" y="1025.26" width="86.2685" height="85.2164" stroke="#E3EEFF"/>
<rect x="427.287" y="1110.48" width="86.2685" height="85.2164" stroke="#E3EEFF"/>
<rect x="427.287" y="1195.7" width="86.2685" height="85.2164" stroke="#E3EEFF"/>
<rect x="513.556" y="768.561" width="85.2164" height="85.2164" stroke="#E3EEFF"/>
<rect x="513.556" y="853.778" width="85.2164" height="85.2164" stroke="#E3EEFF"/>
<rect x="513.556" y="1280.91" width="85.2164" height="85.2164" stroke="#E3EEFF"/>
<rect x="513.556" y="1366.13" width="85.2164" height="85.2164" stroke="#E3EEFF"/>
<rect x="513.556" y="1451.34" width="85.2164" height="85.2164" stroke="#E3EEFF"/>
<rect x="513.556" y="938.994" width="85.2164" height="86.2685" stroke="#E3EEFF"/>
<rect x="513.556" y="1025.26" width="85.2164" height="85.2164" stroke="#E3EEFF"/>
<rect x="513.556" y="1110.48" width="85.2164" height="85.2164" stroke="#E3EEFF"/>
<rect x="513.556" y="1195.7" width="85.2164" height="85.2164" stroke="#E3EEFF"/>
<rect x="598.772" y="768.561" width="85.2164" height="85.2164" stroke="#E3EEFF"/>
<rect x="598.772" y="853.778" width="85.2164" height="85.2164" stroke="#E3EEFF"/>
<rect x="598.772" y="1280.91" width="85.2164" height="85.2164" stroke="#E3EEFF"/>
<rect x="598.772" y="1366.13" width="85.2164" height="85.2164" stroke="#E3EEFF"/>
<rect x="598.772" y="1451.34" width="85.2164" height="85.2164" stroke="#E3EEFF"/>
<rect x="598.772" y="938.994" width="85.2164" height="86.2685" stroke="#E3EEFF"/>
<rect x="598.772" y="1025.26" width="85.2164" height="85.2164" stroke="#E3EEFF"/>
<rect x="598.772" y="1110.48" width="85.2164" height="85.2164" stroke="#E3EEFF"/>
<rect x="598.772" y="1195.7" width="85.2164" height="85.2164" stroke="#E3EEFF"/>
<rect x="683.989" y="768.561" width="85.2164" height="85.2164" stroke="#E3EEFF"/>
<rect x="683.989" y="853.778" width="85.2164" height="85.2164" stroke="#E3EEFF"/>
<rect x="683.989" y="1280.91" width="85.2164" height="85.2164" stroke="#E3EEFF"/>
<rect x="683.989" y="1366.13" width="85.2164" height="85.2164" stroke="#E3EEFF"/>
<rect x="683.989" y="1451.34" width="85.2164" height="85.2164" stroke="#E3EEFF"/>
<rect x="683.989" y="938.994" width="85.2164" height="86.2685" stroke="#E3EEFF"/>
<rect x="683.989" y="1025.26" width="85.2164" height="85.2164" stroke="#E3EEFF"/>
<rect x="683.989" y="1110.48" width="85.2164" height="85.2164" stroke="#E3EEFF"/>
<rect x="683.989" y="1195.7" width="85.2164" height="85.2164" stroke="#E3EEFF"/>
</svg>
