<svg width="445" height="121" viewBox="0 0 445 121" fill="none" xmlns="http://www.w3.org/2000/svg">
<path d="M52.0631 21.0114C52.322 20.882 52.4516 20.6232 52.4516 20.4936L50.7687 14.151C50.6393 13.8921 50.3804 13.7626 50.2509 13.7626L45.3321 15.0571C45.0732 15.1865 44.9438 15.4454 44.9438 15.5748L46.6266 21.9176C46.7559 22.1765 47.0148 22.3059 47.1444 22.3059L52.0631 21.0114Z" fill="black"/>
<path d="M33.4237 30.2017C33.5531 30.0722 33.5531 29.6839 33.4237 29.5544L28.7638 24.8945C28.6343 24.765 28.246 24.765 28.1165 24.8945L24.4922 28.5188C24.3626 28.6483 24.3626 29.0366 24.4922 29.1661L29.1521 33.826C29.2814 33.9556 29.6699 33.9556 29.7992 33.826L33.4237 30.2017Z" fill="black"/>
<path d="M13.2305 50.6534C13.2305 50.9123 13.3599 51.1712 13.6188 51.1712L19.9616 52.8539C20.2205 52.9834 20.4794 52.7245 20.4794 52.4656L21.7737 47.5468C21.9032 47.288 21.6443 47.0291 21.3854 47.0291L15.0427 45.3463C14.7838 45.2168 14.5249 45.4757 14.5249 45.7346L13.2305 50.6534Z" fill="black"/>
<path d="M13.6188 69.8109C13.3599 69.9403 13.2305 70.1992 13.2305 70.3287L14.5249 75.2475C14.6543 75.5064 14.7838 75.6359 15.0427 75.6359L21.3854 73.9531C21.6443 73.8237 21.7737 73.5648 21.7737 73.4353L20.4794 68.5165C20.3498 68.2576 20.2205 68.1282 19.9616 68.1282L13.6188 69.8109Z" fill="black"/>
<path d="M33.5527 91.4285C33.6823 91.299 33.6823 90.9108 33.5527 90.7812L29.9284 87.1569C29.7989 87.0274 29.4106 87.0274 29.2811 87.1569L24.6212 91.8168C24.4918 91.9463 24.4918 92.3346 24.6212 92.4641L28.2457 96.0885C28.3751 96.2178 28.7635 96.2178 28.8928 96.0885L33.5527 91.4285Z" fill="black"/>
<path d="M44.9438 105.278C44.8145 105.537 45.0733 105.796 45.3322 105.796L50.251 107.091C50.5099 107.22 50.7688 106.961 50.7688 106.702L52.4515 100.36C52.5811 100.101 52.3222 99.8418 52.0633 99.8418L47.1443 98.5473C46.8854 98.4178 46.6265 98.6767 46.6265 98.9356L44.9438 105.278Z" fill="black"/>
<path d="M48.18 34.7319C48.4389 34.6024 48.4389 34.3435 48.3094 34.0846L45.0733 28.3891C44.944 28.1302 44.6851 28.1302 44.4262 28.2596L40.025 30.8485C39.7661 30.978 39.7661 31.2369 39.8956 31.4958L43.1317 37.1913C43.2611 37.4502 43.52 37.4502 43.7789 37.3207L48.18 34.7319Z" fill="black"/>
<path d="M27.857 44.8289C27.7277 45.0878 27.857 45.3467 27.9866 45.4761L33.6821 48.7121C33.9409 48.8417 34.1998 48.7121 34.3292 48.5828L36.9181 44.1816C37.0475 43.9227 36.9181 43.6638 36.7886 43.5344L31.0931 40.2984C30.8342 40.1688 30.5753 40.2984 30.446 40.4277L27.857 44.8289Z" fill="black"/>
<path d="M31.8702 57.9021C31.8702 57.6432 31.6113 57.3843 31.3525 57.3843H24.7509C24.492 57.3843 24.2332 57.6432 24.2332 57.9021V63.0799C24.2332 63.3388 24.492 63.5977 24.7509 63.5977H31.3525C31.6113 63.5977 31.8702 63.3388 31.8702 63.0799V57.9021Z" fill="black"/>
<path d="M27.9867 75.3772C27.7278 75.5067 27.7278 75.7656 27.8572 76.0245L30.4461 80.4255C30.5755 80.6844 30.8344 80.6844 31.0933 80.5551L36.7887 77.319C37.0476 77.1895 37.0476 76.9306 36.9183 76.6717L34.3293 72.2707C34.2 72.0118 33.9411 72.0118 33.6822 72.1411L27.9867 75.3772Z" fill="black"/>
<path d="M43.7792 83.5319C43.5203 83.4024 43.2614 83.5319 43.132 83.6613L39.8959 89.3568C39.7664 89.6157 39.8959 89.8745 40.0253 90.0041L44.4263 92.5928C44.6852 92.7224 44.9441 92.5928 45.0736 92.4635L48.3097 86.768C48.4391 86.5091 48.3097 86.2502 48.1802 86.1207L43.7792 83.5319Z" fill="black"/>
<path d="M56.9819 95.6999C56.9819 95.9588 57.2408 96.2176 57.4997 96.2176H62.6774C62.9363 96.2176 63.1952 95.9588 63.1952 95.6999V89.0983C63.1952 88.8395 62.9363 88.5806 62.6774 88.5806H57.4997C57.2408 88.5806 56.9819 88.8395 56.9819 89.0983V95.6999Z" fill="black"/>
<path d="M63.0653 1.20608C63.0653 0.947195 62.8064 0.688309 62.5475 0.688309H57.3698C57.1109 0.688309 56.8521 0.947195 56.8521 1.20608V7.8077C56.8521 8.06657 57.1109 8.32546 57.3698 8.32546H62.5475C62.8064 8.32546 63.0653 8.06657 63.0653 7.8077V1.20608Z" fill="black"/>
<path d="M36.1416 13.8913C36.4005 13.7619 36.4005 13.503 36.2711 13.2441L33.0349 7.54861C32.9055 7.28974 32.6466 7.28974 32.3877 7.41917L27.9867 10.008C27.7278 10.1375 27.7278 10.3964 27.8572 10.6553L31.0933 16.3508C31.2228 16.6096 31.4817 16.6096 31.7406 16.4802L36.1416 13.8913Z" fill="black"/>
<path d="M16.0783 32.1426C16.2077 31.8838 16.0783 31.6249 15.9488 31.4953L10.2533 28.2593C9.99444 28.1299 9.73555 28.2593 9.60612 28.3888L7.01724 32.7898C6.8878 33.0487 7.01724 33.3076 7.14669 33.4371L12.8422 36.6732C13.1011 36.8025 13.36 36.6732 13.4894 36.5437L16.0783 32.1426Z" fill="black"/>
<path d="M7.79359 57.9021C7.79359 57.6432 7.53472 57.3843 7.27582 57.3843H0.803662C0.544775 57.3843 0.285889 57.6432 0.285889 57.9021V63.0799C0.285889 63.3388 0.544775 63.5977 0.803662 63.5977H7.40527C7.66416 63.5977 7.92304 63.3388 7.92304 63.0799V57.9021H7.79359Z" fill="black"/>
<path d="M7.14636 87.4155C6.88747 87.545 6.88747 87.8037 7.01691 88.0626L9.60577 92.4638C9.73522 92.7227 9.99411 92.7227 10.253 92.5932L15.9485 89.3571C16.2074 89.2277 16.2074 88.9688 16.0779 88.7099L13.4891 84.3088C13.3596 84.05 13.1007 84.05 12.8419 84.1794L7.14636 87.4155Z" fill="black"/>
<path d="M27.728 110.327C27.5984 110.586 27.728 110.845 27.8573 110.974L32.2583 113.563C32.5172 113.693 32.7761 113.563 32.9057 113.434L36.1417 107.738C36.2711 107.479 36.1417 107.221 36.0122 107.091L31.6112 104.502C31.3523 104.373 31.0934 104.502 30.964 104.632L27.728 110.327Z" fill="black"/>
<path d="M56.9819 119.776C56.9819 120.035 57.2408 120.294 57.4997 120.294H62.6774C62.9363 120.294 63.1952 120.035 63.1952 119.776V113.175C63.1952 112.916 62.9363 112.657 62.6774 112.657H57.4997C57.2408 112.657 56.9819 112.916 56.9819 113.175V119.776Z" fill="black"/>
<path d="M75.1037 15.5741C75.2331 15.3153 74.9742 15.0564 74.7153 15.0564L69.7965 13.7619C69.5376 13.6325 69.2787 13.8914 69.2787 14.1503L67.596 20.3636C67.4665 20.6225 67.7254 20.8814 67.9843 20.8814L72.903 22.1757C73.1619 22.3052 73.4208 22.0463 73.4208 21.7874L75.1037 15.5741Z" fill="black"/>
<path d="M67.9849 99.9715C67.726 100.101 67.5967 100.36 67.5967 100.489L69.2794 106.832C69.4089 107.091 69.5383 107.22 69.7972 107.22L74.716 105.926C74.9749 105.797 75.1044 105.538 75.1044 105.408L73.4217 99.0655C73.2922 98.8066 73.1628 98.6772 72.9039 98.6772L67.9849 99.9715Z" fill="black"/>
<path d="M86.7539 90.6514C86.6244 90.7808 86.6244 91.1692 86.7539 91.2985L91.4138 95.9586C91.5431 96.088 91.9316 96.088 92.0609 95.9586L95.6854 92.3341C95.8148 92.2047 95.8148 91.8163 95.6854 91.687L91.0254 87.0269C90.896 86.8975 90.5077 86.8975 90.3782 87.0269L86.7539 90.6514Z" fill="black"/>
<path d="M106.818 70.1997C106.948 69.9408 106.689 69.6819 106.43 69.6819L100.087 67.9992C99.8282 67.8697 99.5693 68.1286 99.5693 68.3875L98.2749 73.3064C98.1455 73.5653 98.4044 73.8242 98.6631 73.8242L105.006 75.5069C105.265 75.6363 105.524 75.3774 105.524 75.1185L106.818 70.1997Z" fill="black"/>
<path d="M106.43 51.042C106.689 50.9126 106.818 50.6537 106.818 50.5242L105.524 45.6054C105.394 45.3465 105.265 45.217 105.006 45.217L98.6633 46.8999C98.4044 47.0292 98.2749 47.2881 98.2749 47.4176L99.5694 52.3364C99.6989 52.5953 99.8283 52.7247 100.087 52.7247L106.43 51.042Z" fill="black"/>
<path d="M86.6246 29.5544C86.4952 29.6839 86.4952 30.0722 86.6246 30.2017L90.2491 33.826C90.3785 33.9556 90.7669 33.9556 90.8963 33.826L95.5562 29.1661C95.6857 29.0366 95.6857 28.6483 95.5562 28.5188L91.9318 24.8945C91.8023 24.765 91.414 24.765 91.2847 24.8945L86.6246 29.5544Z" fill="black"/>
<path d="M63.0653 25.1534C63.0653 24.8945 62.8064 24.6356 62.5475 24.6356H57.3698C57.1109 24.6356 56.8521 24.8945 56.8521 25.1534V31.7549C56.8521 32.0138 57.1109 32.2727 57.3698 32.2727H62.5475C62.8064 32.2727 63.0653 32.0138 63.0653 31.7549V25.1534Z" fill="black"/>
<path fill-rule="evenodd" clip-rule="evenodd" d="M62.5476 47.4606C62.8064 47.4606 63.0654 47.7195 63.0654 47.9784V57.3844H72.4714C72.7302 57.3844 72.989 57.6433 72.989 57.9022V63.0799C72.989 63.3388 72.7302 63.5977 72.4714 63.5977H62.5476H57.3699C57.1108 63.5977 56.8521 63.3388 56.8521 63.0799V57.9022V47.9784C56.8521 47.7195 57.1108 47.4606 57.3699 47.4606H62.5476Z" fill="black"/>
<path d="M71.8683 86.121C71.6094 86.2505 71.6094 86.5094 71.7388 86.7683L74.9748 92.4638C75.1044 92.7227 75.3633 92.7227 75.6222 92.5933L80.0232 90.0044C80.2821 89.8749 80.2821 89.616 80.1525 89.3571L76.9165 83.6616C76.7871 83.4027 76.5282 83.4027 76.2693 83.5322L71.8683 86.121Z" fill="black"/>
<path d="M92.1906 76.0242C92.3201 75.7653 92.1906 75.5064 92.0612 75.3769L86.3656 72.1408C86.1067 72.0114 85.848 72.1408 85.7184 72.2703L83.1295 76.6713C83.0001 76.9302 83.1295 77.1891 83.259 77.3187L88.9545 80.5547C89.2134 80.6841 89.4723 80.5547 89.6018 80.4252L92.1906 76.0242Z" fill="black"/>
<path d="M88.1782 62.9507C88.1782 63.2096 88.4371 63.4685 88.696 63.4685H95.2977C95.5566 63.4685 95.8155 63.2096 95.8155 62.9507V57.773C95.8155 57.5141 95.5566 57.2552 95.2977 57.2552H88.696C88.4371 57.2552 88.1782 57.5141 88.1782 57.773V62.9507Z" fill="black"/>
<path d="M92.0616 45.4755C92.3205 45.3462 92.3205 45.0873 92.1909 44.8284L89.6022 40.4274C89.4726 40.1685 89.2137 40.1685 88.9549 40.2978L83.2594 43.5339C83.0005 43.6634 83.0005 43.9223 83.13 44.1812L85.7188 48.5822C85.8483 48.8411 86.1072 48.8411 86.3661 48.7116L92.0616 45.4755Z" fill="black"/>
<path d="M71.7384 34.0843C71.609 34.3431 71.7384 34.602 71.8678 34.7314L76.2689 37.3203C76.5278 37.4499 76.7867 37.3203 76.9161 37.191L80.1522 31.4953C80.2817 31.2364 80.1522 30.9775 80.0228 30.8482L75.6216 28.2593C75.3629 28.1299 75.104 28.2593 74.9745 28.3888L71.7384 34.0843Z" fill="black"/>
<path d="M83.9066 106.962C83.6477 107.091 83.6477 107.35 83.7772 107.609L87.0133 113.304C87.1427 113.563 87.4016 113.563 87.6605 113.434L92.0616 110.845C92.3205 110.715 92.3205 110.457 92.191 110.198L88.8256 104.502C88.696 104.243 88.4371 104.243 88.1782 104.373L83.9066 106.962Z" fill="black"/>
<path d="M103.97 88.8395C103.841 89.0984 103.97 89.3573 104.1 89.4868L109.795 92.7229C110.054 92.8522 110.313 92.7229 110.442 92.5934L113.031 88.1923C113.161 87.9335 113.031 87.6746 112.902 87.545L107.206 84.309C106.947 84.1796 106.688 84.309 106.559 84.4385L103.97 88.8395Z" fill="black"/>
<path d="M112.772 57.3843C112.514 57.3843 112.255 57.6432 112.255 57.9021V63.0799C112.255 63.3388 112.514 63.5977 112.772 63.5977H119.374C119.633 63.5977 119.892 63.3388 119.892 63.0799V57.9021C119.892 57.6432 119.633 57.3843 119.374 57.3843H112.772Z" fill="black"/>
<path d="M112.902 33.4374C113.161 33.3079 113.161 33.049 113.031 32.7901L110.442 28.3891C110.313 28.1302 110.054 28.1302 109.795 28.2596L104.1 31.4958C103.841 31.6252 103.841 31.8841 103.97 32.143L106.559 36.544C106.689 36.8029 106.948 36.8029 107.206 36.6735L112.902 33.4374Z" fill="black"/>
<path d="M92.3199 10.6557C92.4495 10.3968 92.3199 10.138 92.1906 10.0085L87.7896 7.41965C87.5307 7.2902 87.2718 7.41965 87.1422 7.54909L83.7768 13.2446C83.6473 13.5035 83.7768 13.7624 83.9062 13.8918L88.3072 16.4807C88.5661 16.6101 88.825 16.4807 88.9545 16.3512L92.3199 10.6557Z" fill="black"/>
<path d="M308 47.9471C309.1 48.0471 310.875 47.4865 311.239 48.9331C312.651 53.958 314.003 59.0001 315.474 64.0084C315.538 64.2247 315.512 64.5664 315.849 64.5619C316.157 64.5579 316.185 64.2474 316.261 64.0192C317.666 59.818 319.071 55.6165 320.474 51.4145C321.051 50.1858 320.929 47.919 322.738 47.9415C324.031 47.9419 325.324 47.957 326.616 47.9335C327.488 47.9176 328.014 48.3346 328.276 49.1247C329.922 54.0812 331.549 59.0439 333.223 63.9912C333.344 64.8235 334.015 64.7426 334.066 63.9018C335.411 59.0285 336.756 54.1551 338.101 49.2818C338.381 48.2667 338.798 47.9506 339.878 47.9411C341.032 47.9308 342.188 47.9239 343.342 47.9461C344.387 47.9661 344.68 48.3844 344.385 49.3543C342.029 57.094 339.674 64.834 337.32 72.574C336.823 74.2109 336.665 74.3342 334.959 74.3361C333.464 74.1365 331.106 75.0355 330.522 73.1182C328.755 67.9444 326.992 62.7693 325.171 57.6144C325.093 57.395 325.106 57.0712 324.76 57.0953C324.486 57.1143 324.476 57.3917 324.407 57.5922C323.004 61.6197 321.601 65.6472 320.198 69.6747C319.765 70.9135 319.296 72.1401 318.881 73.3847C318.666 74.0308 318.228 74.3137 317.591 74.3218C316.353 74.3376 315.116 74.3255 313.878 74.3298C313.032 74.3327 312.564 73.8661 312.335 73.1067C310.644 67.508 308.953 61.9093 307.263 56.3106C306.58 54.0612 305.882 51.8166 305.168 49.5768C304.325 47.5217 306.743 47.9659 308 47.9471Z" fill="black"/>
<path d="M216.432 74.8285C197.989 74.227 197.932 47.8864 216.598 47.4877C234.934 47.9731 234.976 74.3807 216.432 74.8285ZM216.498 52.8058C205.93 52.9041 205.708 69.0764 216.387 69.5792C227.465 69.2602 227.071 52.8386 216.498 52.8058V52.8058Z" fill="black"/>
<path d="M361.76 47.9124C368.948 46.0791 376.58 49.961 379.047 57.0961C381.497 64.3491 376.591 72.4623 369.35 74.3696C351.448 78.3371 343.84 53.8887 361.76 47.9124ZM372.315 65.6382C373.667 64.1285 374.097 60.752 373.316 58.9069C373.237 58.5638 373.305 58.1428 372.968 57.931C372.988 57.5946 372.797 57.3503 372.605 57.1063C372.494 56.6398 372.218 56.2292 371.827 55.95C371.276 54.9885 370.312 54.2861 369.344 53.8293C368.32 53.0121 366.857 52.7396 365.558 52.8586C356.541 52.5966 354.285 65.9383 362.954 69.1114C364.374 69.6376 365.875 69.9016 367.367 69.2477C368.23 69.207 369.05 68.8544 369.673 68.2555C370.811 67.6868 371.737 66.7697 372.315 65.6382V65.6382Z" fill="black"/>
<path d="M273.865 61.1576C273.864 57.3013 273.864 53.445 273.866 49.5887C273.868 48.0916 274.028 47.9413 275.52 47.9375C276.399 47.9354 277.279 47.9337 278.159 47.9383C279.449 47.9449 279.661 48.1346 279.666 49.4028C279.679 52.2745 279.665 55.1463 279.68 58.0179C279.682 58.4365 279.473 59.0362 279.909 59.2279C280.401 59.4445 280.601 58.8115 280.87 58.5122C283.795 55.2471 286.707 51.9705 289.606 48.6823C289.803 48.4365 290.054 48.2403 290.341 48.1097C290.627 47.9791 290.941 47.9177 291.256 47.9306C292.26 48.1095 296.027 47.5273 296.287 48.3818C296.527 48.877 296.193 49.2115 295.898 49.5385C293.257 52.4696 290.614 55.3983 287.968 58.3247C286.973 59.4201 286.96 59.4148 287.828 60.5818C290.919 64.798 294.127 68.9396 297.152 73.1994C297.467 73.7972 297.255 74.2814 296.584 74.2985C294.881 74.3419 293.176 74.3213 291.473 74.2943C291.002 74.2868 290.689 73.9478 290.417 73.5832C288.306 70.7507 286.18 67.9295 284.081 65.0882C282.967 63.5803 282.967 63.5461 281.668 64.9056C279.283 67.4027 279.717 66.3537 279.674 69.7493C279.66 70.8978 279.656 72.0468 279.67 73.1952C279.679 73.9922 279.295 74.3413 278.511 74.334C277.384 74.3234 276.257 74.3456 275.13 74.3298C274.1 74.3153 273.873 74.0961 273.87 73.0545C273.859 69.0889 273.866 65.1233 273.865 61.1576Z" fill="black"/>
<path d="M253.416 74.8301C247.203 74.8034 241.601 70.8294 239.758 65.349C235.177 52.2984 252.379 41.8808 262.267 50.7899C263.109 51.4534 263.127 52.2992 262.35 53.0182C261.214 53.8101 259.902 56.1132 258.397 54.8138C252.243 49.1765 242.894 56.168 245.46 63.6484C247.127 69.1734 253.905 71.4783 258.201 67.6748C259.779 66.1431 261.091 68.3294 262.316 69.2596C265.291 72.1042 255.202 75.2158 253.416 74.8301Z" fill="black"/>
<path d="M156.452 74.8304C142.73 74.8463 136.98 56.6586 149.139 49.5512C151.684 48.0153 154.646 47.3116 157.612 47.5384C160.577 47.7652 163.397 48.9112 165.678 50.8162C166.562 51.5766 166.565 52.2111 165.702 52.9977C164.534 53.8484 163.138 56.2196 161.618 54.7335C151.919 47.0502 142.495 63.3377 153.106 68.7432C159.651 71.9783 161.635 65.2924 163.943 67.7433C164.974 68.8209 167.603 70.0762 165.565 71.5514C163.003 73.6706 159.779 74.8303 156.452 74.8304V74.8304Z" fill="black"/>
<path d="M175.962 61.1505C175.962 57.2677 175.962 53.385 175.963 49.5022C175.965 48.1572 176.188 47.9443 177.559 47.9384C178.549 47.9341 179.538 47.928 180.528 47.9425C181.6 47.9582 181.836 48.1929 181.837 49.2609C181.844 55.4131 181.846 61.5653 181.845 67.7175C181.845 69.1226 181.87 69.1522 183.26 69.1533C186.668 69.1561 190.076 69.1494 193.484 69.1585C194.867 69.1622 195.041 69.3527 195.044 70.7392C195.045 71.4228 195.05 72.1064 195.042 72.7899C195.026 74.1057 194.81 74.3305 193.506 74.3333C188.147 74.3377 182.787 74.3374 177.428 74.3322C176.23 74.3261 175.968 74.069 175.966 72.8807C175.958 68.9707 175.957 65.0606 175.962 61.1505Z" fill="black"/>
<path d="M389.188 61.1667C389.187 57.2274 389.188 53.2881 389.189 49.3488C389.191 48.154 389.394 47.9463 390.572 47.9445C397.421 48.284 407.653 45.786 410.673 53.9018C411.401 55.903 411.369 58.1014 410.583 60.0806C409.796 62.0599 408.31 63.6826 406.405 64.6417C405.282 65.2019 405.289 65.1971 405.968 66.1905C407.482 68.4063 409.008 70.614 410.632 72.7526C410.901 73.1075 411.181 73.4836 410.969 73.9492C410.745 74.4421 410.249 74.3875 409.816 74.3911C408.291 74.1997 405.496 74.9965 404.574 73.5942C403.014 71.3772 401.405 69.1935 399.864 66.9636C399.076 65.5217 397.568 65.8972 396.193 65.8625C395.124 65.8778 394.995 65.9942 394.989 67.04C394.979 68.9822 394.99 70.9246 394.982 72.8668C394.977 74.2037 394.792 74.3856 393.457 74.3954C392.467 74.4027 391.477 74.4059 390.487 74.3934C389.418 74.3798 389.193 74.1564 389.191 73.0666C389.184 69.1 389.183 65.1333 389.188 61.1667ZM394.933 56.8749C394.914 57.7602 394.949 58.6826 394.921 59.5795C394.904 60.2745 395.212 60.5691 395.908 60.5607C398.669 60.3284 401.999 61.3234 404.229 59.2417C406.138 57.3255 405.144 54.1931 402.388 53.4911C400.146 52.92 397.851 53.288 395.58 53.2304C394.443 53.0989 395.093 56.0993 394.933 56.8749Z" fill="black"/>
<path d="M433.881 52.5137C435.447 51.3581 437.14 47.9109 439.03 47.948C439.973 48.1085 443.811 47.556 443.985 48.3748C444.229 48.8921 443.889 49.2656 443.575 49.6125C440.784 52.7049 437.946 55.7574 435.197 58.8856C434.837 59.2737 434.823 59.6277 435.14 60.0509C438.346 64.4207 441.717 68.6911 444.823 73.125C445.167 73.7876 444.884 74.2878 444.133 74.3029C442.566 74.3344 440.998 74.3134 439.431 74.2994C438.863 74.2944 438.473 73.9777 438.136 73.5378C436.902 71.9346 435.781 70.2421 434.422 68.7436C433.361 67.0836 432.188 65.4974 430.912 63.9959C430.735 63.7208 430.546 63.6507 430.336 63.9637C429.549 64.66 428.836 65.4357 428.209 66.2784C427.62 66.6455 427.388 67.1635 427.399 67.8629C427.433 69.8558 427.42 71.8495 427.425 73.8429C427.056 74.219 426.602 74.3233 426.086 74.3165C424.904 74.1199 422.349 74.7726 421.7 73.8505C421.702 65.3183 421.704 56.7864 421.706 48.2546C422.737 47.5571 424.484 48.0925 425.788 47.9399C427.289 47.9445 427.396 48.0462 427.404 49.5044C427.421 52.7481 427.437 55.9918 427.453 59.2356C427.611 59.6878 427.776 59.4441 427.941 59.2403C429.963 57.0241 431.982 54.7782 433.881 52.5137Z" fill="black"/>
</svg>
