<svg width="770" height="1538" viewBox="0 0 770 1538" fill="none" xmlns="http://www.w3.org/2000/svg">
<rect x="0.716797" y="0.561157" width="85.2164" height="85.2164" stroke="white"/>
<rect x="0.716797" y="85.7776" width="85.2164" height="85.2164" stroke="white"/>
<rect x="0.716797" y="512.912" width="85.2164" height="85.2164" stroke="white"/>
<rect x="0.716797" y="598.128" width="85.2164" height="85.2164" stroke="white"/>
<rect x="0.716797" y="683.345" width="85.2164" height="85.2164" stroke="white"/>
<rect x="0.716797" y="170.994" width="85.2164" height="86.2685" stroke="white"/>
<rect x="0.716797" y="257.263" width="85.2164" height="85.2164" stroke="white"/>
<rect x="0.716797" y="342.479" width="85.2164" height="85.2164" stroke="white"/>
<rect x="0.716797" y="427.695" width="85.2164" height="85.2164" stroke="white"/>
<rect x="85.9329" y="0.561157" width="85.2164" height="85.2164" stroke="white"/>
<rect x="85.9329" y="85.7776" width="85.2164" height="85.2164" stroke="white"/>
<rect x="85.9329" y="512.912" width="85.2164" height="85.2164" stroke="white"/>
<rect x="85.9329" y="598.128" width="85.2164" height="85.2164" stroke="white"/>
<rect x="85.9329" y="683.345" width="85.2164" height="85.2164" stroke="white"/>
<rect x="85.9329" y="170.994" width="85.2164" height="86.2685" stroke="white"/>
<rect x="85.9329" y="257.263" width="85.2164" height="85.2164" stroke="white"/>
<rect x="85.9329" y="342.479" width="85.2164" height="85.2164" stroke="white"/>
<rect x="85.9329" y="427.695" width="85.2164" height="85.2164" stroke="white"/>
<rect x="171.15" y="0.561157" width="85.2164" height="85.2164" stroke="white"/>
<rect x="171.15" y="85.7776" width="85.2164" height="85.2164" stroke="white"/>
<rect x="171.15" y="512.912" width="85.2164" height="85.2164" stroke="white"/>
<rect x="171.15" y="598.128" width="85.2164" height="85.2164" stroke="white"/>
<rect x="171.15" y="683.345" width="85.2164" height="85.2164" stroke="white"/>
<rect x="171.15" y="170.994" width="85.2164" height="86.2685" stroke="white"/>
<rect x="171.15" y="257.263" width="85.2164" height="85.2164" stroke="white"/>
<rect x="171.15" y="342.479" width="85.2164" height="85.2164" stroke="white"/>
<rect x="171.15" y="427.695" width="85.2164" height="85.2164" stroke="white"/>
<rect x="256.366" y="0.561157" width="85.2164" height="85.2164" stroke="white"/>
<rect x="256.366" y="85.7776" width="85.2164" height="85.2164" stroke="white"/>
<rect x="256.366" y="512.912" width="85.2164" height="85.2164" stroke="white"/>
<rect x="256.366" y="598.128" width="85.2164" height="85.2164" stroke="white"/>
<rect x="256.366" y="683.345" width="85.2164" height="85.2164" stroke="white"/>
<rect x="256.366" y="170.994" width="85.2164" height="86.2685" stroke="white"/>
<rect x="256.366" y="257.263" width="85.2164" height="85.2164" stroke="white"/>
<rect x="256.366" y="342.479" width="85.2164" height="85.2164" stroke="white"/>
<rect x="256.366" y="427.695" width="85.2164" height="85.2164" stroke="white"/>
<rect x="341.583" y="0.561157" width="85.2164" height="85.2164" stroke="white"/>
<rect x="341.583" y="85.7776" width="85.2164" height="85.2164" stroke="white"/>
<rect x="341.583" y="512.912" width="85.2164" height="85.2164" stroke="white"/>
<rect x="341.583" y="598.128" width="85.2164" height="85.2164" stroke="white"/>
<rect x="341.583" y="683.345" width="85.2164" height="85.2164" stroke="white"/>
<rect x="341.583" y="170.994" width="85.2164" height="86.2685" stroke="white"/>
<rect x="341.583" y="257.263" width="85.2164" height="85.2164" stroke="white"/>
<rect x="341.583" y="342.479" width="85.2164" height="85.2164" stroke="white"/>
<rect x="341.583" y="427.695" width="85.2164" height="85.2164" stroke="white"/>
<rect x="426.799" y="0.561157" width="86.2685" height="85.2164" stroke="white"/>
<rect x="426.799" y="85.7776" width="86.2685" height="85.2164" stroke="white"/>
<rect x="426.799" y="512.912" width="86.2685" height="85.2164" stroke="white"/>
<rect x="426.799" y="598.128" width="86.2685" height="85.2164" stroke="white"/>
<rect x="426.799" y="683.345" width="86.2685" height="85.2164" stroke="white"/>
<rect x="426.799" y="170.994" width="86.2685" height="86.2685" stroke="white"/>
<rect x="426.799" y="257.263" width="86.2685" height="85.2164" stroke="white"/>
<rect x="426.799" y="342.479" width="86.2685" height="85.2164" stroke="white"/>
<rect x="426.799" y="427.695" width="86.2685" height="85.2164" stroke="white"/>
<rect x="513.068" y="0.561157" width="85.2164" height="85.2164" stroke="white"/>
<rect x="513.068" y="85.7776" width="85.2164" height="85.2164" stroke="white"/>
<rect x="513.068" y="512.912" width="85.2164" height="85.2164" stroke="white"/>
<rect x="513.068" y="598.128" width="85.2164" height="85.2164" stroke="white"/>
<rect x="513.068" y="683.345" width="85.2164" height="85.2164" stroke="white"/>
<rect x="513.068" y="170.994" width="85.2164" height="86.2685" stroke="white"/>
<rect x="513.068" y="257.263" width="85.2164" height="85.2164" stroke="white"/>
<rect x="513.068" y="342.479" width="85.2164" height="85.2164" stroke="white"/>
<rect x="513.068" y="427.695" width="85.2164" height="85.2164" stroke="white"/>
<rect x="598.284" y="0.561157" width="85.2164" height="85.2164" stroke="white"/>
<rect x="598.284" y="85.7776" width="85.2164" height="85.2164" stroke="white"/>
<rect x="598.284" y="512.912" width="85.2164" height="85.2164" stroke="white"/>
<rect x="598.284" y="598.128" width="85.2164" height="85.2164" stroke="white"/>
<rect x="598.284" y="683.345" width="85.2164" height="85.2164" stroke="white"/>
<rect x="598.284" y="170.994" width="85.2164" height="86.2685" stroke="white"/>
<rect x="598.284" y="257.263" width="85.2164" height="85.2164" stroke="white"/>
<rect x="598.284" y="342.479" width="85.2164" height="85.2164" stroke="white"/>
<rect x="598.284" y="427.695" width="85.2164" height="85.2164" stroke="white"/>
<rect x="683.501" y="0.561157" width="85.2164" height="85.2164" stroke="white"/>
<rect x="683.501" y="85.7776" width="85.2164" height="85.2164" stroke="white"/>
<rect x="683.501" y="512.912" width="85.2164" height="85.2164" stroke="white"/>
<rect x="683.501" y="598.128" width="85.2164" height="85.2164" stroke="white"/>
<rect x="683.501" y="683.345" width="85.2164" height="85.2164" stroke="white"/>
<rect x="683.501" y="170.994" width="85.2164" height="86.2685" stroke="white"/>
<rect x="683.501" y="257.263" width="85.2164" height="85.2164" stroke="white"/>
<rect x="683.501" y="342.479" width="85.2164" height="85.2164" stroke="white"/>
<rect x="683.501" y="427.695" width="85.2164" height="85.2164" stroke="white"/>
<rect x="0.716797" y="768.561" width="85.2164" height="85.2164" stroke="white"/>
<rect x="0.716797" y="853.778" width="85.2164" height="85.2164" stroke="white"/>
<rect x="0.716797" y="1280.91" width="85.2164" height="85.2164" stroke="white"/>
<rect x="0.716797" y="1366.13" width="85.2164" height="85.2164" stroke="white"/>
<rect x="0.716797" y="1451.34" width="85.2164" height="85.2164" stroke="white"/>
<rect x="0.716797" y="938.994" width="85.2164" height="86.2685" stroke="white"/>
<rect x="0.716797" y="1025.26" width="85.2164" height="85.2164" stroke="white"/>
<rect x="0.716797" y="1110.48" width="85.2164" height="85.2164" stroke="white"/>
<rect x="0.716797" y="1195.7" width="85.2164" height="85.2164" stroke="white"/>
<rect x="85.9329" y="768.561" width="85.2164" height="85.2164" stroke="white"/>
<rect x="85.9329" y="853.778" width="85.2164" height="85.2164" stroke="white"/>
<rect x="85.9329" y="1280.91" width="85.2164" height="85.2164" stroke="white"/>
<rect x="85.9329" y="1366.13" width="85.2164" height="85.2164" stroke="white"/>
<rect x="85.9329" y="1451.34" width="85.2164" height="85.2164" stroke="white"/>
<rect x="85.9329" y="938.994" width="85.2164" height="86.2685" stroke="white"/>
<rect x="85.9329" y="1025.26" width="85.2164" height="85.2164" stroke="white"/>
<rect x="85.9329" y="1110.48" width="85.2164" height="85.2164" stroke="white"/>
<rect x="85.9329" y="1195.7" width="85.2164" height="85.2164" stroke="white"/>
<rect x="171.15" y="768.561" width="85.2164" height="85.2164" stroke="white"/>
<rect x="171.15" y="853.778" width="85.2164" height="85.2164" stroke="white"/>
<rect x="171.15" y="1280.91" width="85.2164" height="85.2164" stroke="white"/>
<rect x="171.15" y="1366.13" width="85.2164" height="85.2164" stroke="white"/>
<rect x="171.15" y="1451.34" width="85.2164" height="85.2164" stroke="white"/>
<rect x="171.15" y="938.994" width="85.2164" height="86.2685" stroke="white"/>
<rect x="171.15" y="1025.26" width="85.2164" height="85.2164" stroke="white"/>
<rect x="171.15" y="1110.48" width="85.2164" height="85.2164" stroke="white"/>
<rect x="171.15" y="1195.7" width="85.2164" height="85.2164" stroke="white"/>
<rect x="256.366" y="768.561" width="85.2164" height="85.2164" stroke="white"/>
<rect x="256.366" y="853.778" width="85.2164" height="85.2164" stroke="white"/>
<rect x="256.366" y="1280.91" width="85.2164" height="85.2164" stroke="white"/>
<rect x="256.366" y="1366.13" width="85.2164" height="85.2164" stroke="white"/>
<rect x="256.366" y="1451.34" width="85.2164" height="85.2164" stroke="white"/>
<rect x="256.366" y="938.994" width="85.2164" height="86.2685" stroke="white"/>
<rect x="256.366" y="1025.26" width="85.2164" height="85.2164" stroke="white"/>
<rect x="256.366" y="1110.48" width="85.2164" height="85.2164" stroke="white"/>
<rect x="256.366" y="1195.7" width="85.2164" height="85.2164" stroke="white"/>
<rect x="341.583" y="768.561" width="85.2164" height="85.2164" stroke="white"/>
<rect x="341.583" y="853.778" width="85.2164" height="85.2164" stroke="white"/>
<rect x="341.583" y="1280.91" width="85.2164" height="85.2164" stroke="white"/>
<rect x="341.583" y="1366.13" width="85.2164" height="85.2164" stroke="white"/>
<rect x="341.583" y="1451.34" width="85.2164" height="85.2164" stroke="white"/>
<rect x="341.583" y="938.994" width="85.2164" height="86.2685" stroke="white"/>
<rect x="341.583" y="1025.26" width="85.2164" height="85.2164" stroke="white"/>
<rect x="341.583" y="1110.48" width="85.2164" height="85.2164" stroke="white"/>
<rect x="341.583" y="1195.7" width="85.2164" height="85.2164" stroke="white"/>
<rect x="426.799" y="768.561" width="86.2685" height="85.2164" stroke="white"/>
<rect x="426.799" y="853.778" width="86.2685" height="85.2164" stroke="white"/>
<rect x="426.799" y="1280.91" width="86.2685" height="85.2164" stroke="white"/>
<rect x="426.799" y="1366.13" width="86.2685" height="85.2164" stroke="white"/>
<rect x="426.799" y="1451.34" width="86.2685" height="85.2164" stroke="white"/>
<rect x="426.799" y="938.994" width="86.2685" height="86.2685" stroke="white"/>
<rect x="426.799" y="1025.26" width="86.2685" height="85.2164" stroke="white"/>
<rect x="426.799" y="1110.48" width="86.2685" height="85.2164" stroke="white"/>
<rect x="426.799" y="1195.7" width="86.2685" height="85.2164" stroke="white"/>
<rect x="513.068" y="768.561" width="85.2164" height="85.2164" stroke="white"/>
<rect x="513.068" y="853.778" width="85.2164" height="85.2164" stroke="white"/>
<rect x="513.068" y="1280.91" width="85.2164" height="85.2164" stroke="white"/>
<rect x="513.068" y="1366.13" width="85.2164" height="85.2164" stroke="white"/>
<rect x="513.068" y="1451.34" width="85.2164" height="85.2164" stroke="white"/>
<rect x="513.068" y="938.994" width="85.2164" height="86.2685" stroke="white"/>
<rect x="513.068" y="1025.26" width="85.2164" height="85.2164" stroke="white"/>
<rect x="513.068" y="1110.48" width="85.2164" height="85.2164" stroke="white"/>
<rect x="513.068" y="1195.7" width="85.2164" height="85.2164" stroke="white"/>
<rect x="598.284" y="768.561" width="85.2164" height="85.2164" stroke="white"/>
<rect x="598.284" y="853.778" width="85.2164" height="85.2164" stroke="white"/>
<rect x="598.284" y="1280.91" width="85.2164" height="85.2164" stroke="white"/>
<rect x="598.284" y="1366.13" width="85.2164" height="85.2164" stroke="white"/>
<rect x="598.284" y="1451.34" width="85.2164" height="85.2164" stroke="white"/>
<rect x="598.284" y="938.994" width="85.2164" height="86.2685" stroke="white"/>
<rect x="598.284" y="1025.26" width="85.2164" height="85.2164" stroke="white"/>
<rect x="598.284" y="1110.48" width="85.2164" height="85.2164" stroke="white"/>
<rect x="598.284" y="1195.7" width="85.2164" height="85.2164" stroke="white"/>
<rect x="683.501" y="768.561" width="85.2164" height="85.2164" stroke="white"/>
<rect x="683.501" y="853.778" width="85.2164" height="85.2164" stroke="white"/>
<rect x="683.501" y="1280.91" width="85.2164" height="85.2164" stroke="white"/>
<rect x="683.501" y="1366.13" width="85.2164" height="85.2164" stroke="white"/>
<rect x="683.501" y="1451.34" width="85.2164" height="85.2164" stroke="white"/>
<rect x="683.501" y="938.994" width="85.2164" height="86.2685" stroke="white"/>
<rect x="683.501" y="1025.26" width="85.2164" height="85.2164" stroke="white"/>
<rect x="683.501" y="1110.48" width="85.2164" height="85.2164" stroke="white"/>
<rect x="683.501" y="1195.7" width="85.2164" height="85.2164" stroke="white"/>
</svg>
