<svg width="643" height="401" fill="none" xmlns="http://www.w3.org/2000/svg">
  <rect x="1.65356" y="1.88617" width="639.208" height="397.338" rx="6.5" fill="#fff" stroke="#3C50F8" stroke-width="3"/>
  <rect x="110.654" y="105.63" width="421" height="261.885" rx="8.72404" fill="#FFF6BF" stroke="#3C50F8"/>
  <rect x="110.154" y="69.3865" width="422" height="18.4481" rx="9.22404" fill="#F0F0F0"/>
  <circle cx="182.793" cy="304.6" r="8.07104" fill="#3C50F8"/>
  <circle cx="471.044" cy="215.818" r="8.07104" fill="#3C50F8"/>
  <circle cx="182.793" cy="304.6" r="10.9536" stroke="#3C50F8" stroke-width="1.15301"/>
  <circle cx="471.044" cy="215.818" r="10.9536" stroke="#3C50F8" stroke-width="1.15301"/>
  <path d="M150.509 271.162c0-1.273 1.032-2.306 2.306-2.306h58.803c1.274 0 2.306 1.033 2.306 2.306v13.837c0 1.273-1.032 2.306-2.306 2.306h-25.45c-.315 0-.615.128-.833.355l-2.103 2.195c-.468.488-1.255.47-1.7-.039l-1.853-2.118c-.219-.25-.536-.393-.868-.393h-25.996c-1.274 0-2.306-1.033-2.306-2.306v-13.837Z" fill="#FDBC15"/>
  <circle cx="471.044" cy="170.851" r="8.07104" fill="#3C50F8"/>
  <circle cx="471.044" cy="170.851" r="10.9536" stroke="#3C50F8" stroke-width="1.15301"/>
  <path d="M385.722 165.086c0-1.274 1.032-2.306 2.306-2.306h58.803c1.274 0 2.306 1.032 2.306 2.306v3.995c0 .386.193.746.514.959l1.506 1.005c.685.456.685 1.462 0 1.918l-1.506 1.005c-.321.214-.514.574-.514.959v3.995c0 1.274-1.032 2.306-2.306 2.306h-58.803c-1.274 0-2.306-1.032-2.306-2.306v-13.836ZM502.175 251.561c0 1.274-1.032 2.306-2.306 2.306h-58.803c-1.274 0-2.306-1.032-2.306-2.306v-13.836c0-1.273 1.032-2.306 2.306-2.306h25.45c.315 0 .615-.128.833-.355l2.103-2.195c.468-.488 1.255-.47 1.7.039l1.853 2.118c.219.25.536.393.868.393h25.996c1.274 0 2.306 1.033 2.306 2.306v13.836Z" fill="#FDBC15"/>
  <path d="M312.309 345.422h-2.903l-.442 1.341h-2.392l2.984-8.226h2.625l2.974 8.226h-2.404l-.442-1.341Zm-.569-1.751-.883-2.66-.871 2.66h1.754ZM320.043 346.763l-1.626-3.033h-.244v3.033h-2.276v-8.226h3.589c.658 0 1.215.117 1.672.35.457.226.802.541 1.034.946.232.396.348.844.348 1.341 0 .56-.155 1.054-.464 1.482-.302.42-.747.72-1.336.899l1.847 3.208h-2.544Zm-1.87-4.597h1.127c.31 0 .542-.074.697-.222.155-.147.232-.361.232-.641 0-.265-.081-.471-.244-.619-.155-.155-.383-.233-.685-.233h-1.127v1.715ZM323.297 342.633c0-.809.166-1.529.499-2.159.341-.638.821-1.132 1.44-1.482.62-.357 1.332-.536 2.138-.536 1.022 0 1.881.276 2.578.828.697.545 1.146 1.288 1.347 2.229h-2.45c-.148-.311-.353-.549-.616-.712-.256-.163-.554-.245-.894-.245-.527 0-.949.191-1.266.572-.31.373-.465.875-.465 1.505 0 .638.155 1.147.465 1.528.317.374.739.561 1.266.561.34 0 .638-.082.894-.246.263-.163.468-.4.616-.711h2.45c-.201.941-.65 1.688-1.347 2.24-.697.545-1.556.817-2.578.817-.806 0-1.518-.175-2.138-.525-.619-.358-1.099-.852-1.44-1.482-.333-.638-.499-1.365-.499-2.182ZM337.557 345.422h-2.903l-.442 1.341h-2.392l2.985-8.226h2.625l2.973 8.226h-2.404l-.442-1.341Zm-.569-1.751-.882-2.66-.872 2.66h1.754ZM344.385 338.537c.86 0 1.611.175 2.254.525.65.343 1.15.825 1.498 1.447.348.623.523 1.334.523 2.136 0 .793-.178 1.501-.535 2.123-.348.622-.848 1.113-1.498 1.47-.643.35-1.39.525-2.242.525h-3.24v-8.226h3.24Zm-.174 6.208c.666 0 1.189-.183 1.568-.549.38-.365.569-.882.569-1.551 0-.677-.189-1.198-.569-1.564-.379-.373-.902-.56-1.568-.56h-.79v4.224h.79ZM351.962 340.369v1.342h2.614v1.739h-2.614v1.482h2.962v1.831h-5.238v-8.226h5.238v1.832h-2.962Z" fill="#000"/>
  <path fill-rule="evenodd" clip-rule="evenodd" d="M302.656 342.05c.005-.06.007-.121.007-.182 0-2.206-3.345-3.995-7.473-3.995-4.127 0-7.473 1.789-7.473 3.995 0 .061.003.122.008.182-.005.061-.008.121-.008.182 0 .062.003.122.008.183-.005.06-.008.121-.008.182s.003.122.008.182c-.005.06-.008.121-.008.182s.003.122.008.182c-.005.061-.008.121-.008.183 0 .061.003.121.008.182-.005.06-.008.121-.008.182s.003.122.008.182c-.005.06-.008.121-.008.182s.003.122.008.182c-.005.061-.008.122-.008.183 0 2.206 3.346 3.994 7.473 3.994 4.128 0 7.473-1.788 7.473-3.994 0-.061-.002-.122-.007-.183.005-.06.007-.121.007-.182s-.002-.122-.007-.182c.005-.06.007-.121.007-.182s-.002-.122-.007-.182c.005-.061.007-.121.007-.182 0-.062-.002-.122-.007-.183.005-.06.007-.121.007-.182s-.002-.122-.007-.182c.005-.06.007-.121.007-.182s-.002-.122-.007-.182c.005-.061.007-.121.007-.183 0-.061-.002-.121-.007-.182Z" fill="#000"/>
  <path d="M302.402 341.872c0 .961-.732 1.891-2.051 2.597-1.307.699-3.132 1.14-5.161 1.14-2.029 0-3.853-.441-5.161-1.14-1.318-.706-2.05-1.636-2.05-2.597 0-.961.732-1.891 2.05-2.597 1.308-.699 3.132-1.14 5.161-1.14 2.029 0 3.854.441 5.161 1.14 1.319.706 2.051 1.636 2.051 2.597Z" fill="#FFF6BF" stroke="#000" stroke-width=".523557"/>
  <path fill-rule="evenodd" clip-rule="evenodd" d="M300.755 339.999c.004-.045.006-.09.006-.136 0-1.645-2.494-2.979-5.571-2.979-3.077 0-5.571 1.334-5.571 2.979 0 .046.002.091.006.136-.004.045-.006.09-.006.136 0 .045.002.091.006.136-.004.045-.006.09-.006.136 0 .045.002.09.006.135-.004.046-.006.091-.006.136 0 .046.002.091.006.136-.004.045-.006.091-.006.136 0 .046.002.091.006.136-.004.045-.006.09-.006.136 0 .045.002.091.006.136-.004.045-.006.09-.006.136 0 .045.002.09.006.136-.004.045-.006.09-.006.135 0 1.646 2.494 2.98 5.571 2.98 3.077 0 5.571-1.334 5.571-2.98 0-.045-.002-.09-.006-.135.004-.046.006-.091.006-.136 0-.046-.002-.091-.006-.136.004-.045.006-.091.006-.136 0-.046-.002-.091-.006-.136.004-.045.006-.09.006-.136 0-.045-.002-.091-.006-.136.004-.045.006-.09.006-.136 0-.045-.002-.09-.006-.136.004-.045.006-.09.006-.135 0-.046-.002-.091-.006-.136.004-.045.006-.091.006-.136 0-.046-.002-.091-.006-.136Z" fill="#000"/>
  <path d="M300.499 339.863c0 .68-.519 1.355-1.493 1.876-.964.515-2.312.842-3.816.842s-2.853-.327-3.816-.842c-.974-.521-1.493-1.196-1.493-1.876 0-.679.519-1.355 1.493-1.876.963-.515 2.312-.842 3.816-.842s2.852.327 3.816.842c.974.521 1.493 1.197 1.493 1.876Z" fill="#FFF6BF" stroke="#000" stroke-width=".523557"/>
  <path d="M1.1958 8.42872c0-3.866 3.13401-7.00001 7-7.00001H634.319c3.866 0 7 3.13401 7 7V21.2371H1.1958V8.42872Z" fill="#3C50F8"/>
  <path d="M145.067 2.47131h122.148c2.209 0 4 1.79086 4 4V21.2371H145.067V2.47131Z" fill="#E3EEFF"/>
  <path fill-rule="evenodd" clip-rule="evenodd" d="M158.13 6.47131c0-2.20914-1.791-4-4-4H50.6245c-2.2091 0-4 1.79087-4 4.00001V19.2371c0 1.1046-.8954 2-2 2H3.28149v29.1913H639.235V21.2371H160.13c-1.105 0-2-.8954-2-2V6.47131Z" fill="#E3EEFF"/>
  <rect x="81.4719" y="25.4072" width="466.018" height="20.8509" rx="2" fill="#fff"/>
  <circle cx="12.1431" cy="11.333" r="3.64891" fill="#E3EEFF"/>
  <circle cx="23.6106" cy="11.333" r="3.64891" fill="#E3EEFF"/>
  <circle cx="35.0788" cy="11.333" r="3.64891" fill="#E3EEFF"/>
</svg>
