<svg width="454" height="283" viewBox="0 0 454 283" fill="none" xmlns="http://www.w3.org/2000/svg">
<rect x="1.10083" y="1.66772" width="451.542" height="279.539" rx="7" fill="white" stroke="#3C50F8" stroke-width="2"/>
<path d="M1.73828 7.20654C1.73828 4.44512 3.97686 2.20654 6.73828 2.20654H446.714C449.475 2.20654 451.714 4.44512 451.714 7.20654V18.4563H1.73828V7.20654Z" fill="#3C50F8"/>
<path d="M98.4604 8.31808C98.4604 6.74012 99.7396 5.46094 101.318 5.46094H185.437C187.015 5.46094 188.294 6.74012 188.294 8.31808V18.5013H98.4604V8.31808Z" fill="#E3EEFF"/>
<path fill-rule="evenodd" clip-rule="evenodd" d="M111.582 8.31808C111.582 6.74012 110.302 5.46094 108.724 5.46094H35.6065C34.0286 5.46094 32.7494 6.74012 32.7494 8.31808V17.0727C32.7494 17.8617 32.1098 18.5013 31.3208 18.5013H2.10669V38.7863H451.714V18.5013H113.01C112.221 18.5013 111.582 17.8617 111.582 17.0727V8.31808Z" fill="#E3EEFF"/>
<rect x="56.4414" y="21.3992" width="323.836" height="14.4893" rx="1.42857" fill="white"/>
<circle cx="7.90274" cy="11.9811" r="2.89786" fill="#E3EEFF"/>
<circle cx="394.402" cy="29.0061" r="4.70902" fill="#3C50F8"/>
<circle cx="16.5951" cy="11.9811" r="2.89786" fill="#E3EEFF"/>
<circle cx="408.892" cy="29.0061" r="4.70902" fill="#3C50F8"/>
<circle cx="25.2895" cy="11.9811" r="2.89786" fill="#E3EEFF"/>
<circle cx="422.657" cy="29.0061" r="4.70902" fill="#3C50F8"/>
<g clip-path="url(#clip0_4_916)">
<path d="M45.9363 61.608C45.9363 60.8835 45.9363 58.3479 49.5586 60.159L49.7908 60.2364C50.2156 60.1427 51.0291 59.7727 50.6453 60.5213L50.8075 60.6834C51.0167 60.6327 51.2784 60.5223 51.0076 60.8835L50.5227 61.7926C49.9143 63.2255 49.3493 65.4327 48.1097 66.317C46.0393 67.794 42.314 68.1281 41.2273 65.9548C42.0725 66.0755 43.4007 65.8823 43.4007 65.5925C43.4007 65.2303 40.1406 62.6947 42.6762 59.4346C43.0385 60.5213 45.5741 61.9701 45.9363 61.608Z" fill="#E3EEFF"/>
<path d="M44.5098 67.6177C42.3225 67.6177 41.48 66.5241 41.2739 66.1889C41.2153 66.0936 41.2124 65.9739 41.266 65.8761C41.3196 65.7782 41.4227 65.7162 41.5346 65.7144C42.1217 65.7052 42.8159 65.6582 43.2811 65.5565C42.8361 65.281 42.2407 64.762 42.2829 63.9755C42.0721 63.7627 41.5685 63.1454 41.6611 62.1772C41.563 61.8457 41.1384 60.1384 42.4927 59.2679C42.5429 59.2356 42.6012 59.2185 42.6611 59.2185C42.7859 59.2185 42.8985 59.2921 42.9478 59.4061C43.0462 59.6342 43.6346 60.7689 45.7777 61.2857C45.8668 60.7971 46.183 59.8371 47.2959 59.5035C47.5626 59.4236 47.822 59.383 48.0667 59.383C48.8121 59.383 49.2409 59.7467 49.4072 59.9267C49.5587 59.9333 49.933 59.9148 50.4604 59.6237C50.5971 59.5485 50.7786 59.5915 50.8671 59.7186C50.9251 59.8016 50.9388 59.9084 50.9037 60.0038L50.7626 60.3872L50.9866 60.3339C51.1076 60.3051 51.2385 60.3539 51.3111 60.4546C51.3699 60.5358 51.386 60.6412 51.3544 60.7365C51.2794 60.9621 51.0733 61.3965 50.5343 61.7769L50.5026 61.7965C50.4748 61.8205 50.3114 61.9891 50.3547 62.6104C50.4162 63.4905 49.4104 66.9554 45.7076 67.5213C45.2889 67.5854 44.8857 67.6177 44.5098 67.6177ZM41.8778 66.1887C42.2207 66.5681 42.9881 67.1344 44.5098 67.1344C44.8616 67.1344 45.2399 67.1038 45.6347 67.0435C48.9583 66.5355 49.9257 63.3996 49.8729 62.6442C49.8082 61.7167 50.1415 61.4427 50.2698 61.3722C50.4984 61.2084 50.648 61.037 50.7459 60.888L50.5641 60.9313C50.4404 60.9608 50.3084 60.9101 50.2361 60.8063C50.1777 60.7229 50.164 60.616 50.1991 60.5203L50.3052 60.2315C49.9426 60.3756 49.6519 60.411 49.4535 60.411C49.3753 60.411 49.3164 60.4052 49.2806 60.4004C49.2027 60.3896 49.1325 60.3503 49.0829 60.2896C49.0249 60.2183 48.7076 59.8664 48.0667 59.8664C47.869 59.8664 47.6562 59.9 47.4345 59.9665C46.4355 60.2659 46.2605 61.235 46.2308 61.5248C46.2139 61.6851 46.08 61.8057 45.9191 61.8057L45.8533 61.7988C43.7133 61.3356 42.8853 60.299 42.5986 59.7871C41.6812 60.538 42.0815 61.9067 42.1328 62.0675C42.1454 62.107 42.1496 62.149 42.1452 62.1918C42.0478 63.0743 42.5645 63.5833 42.6691 63.6764C42.7435 63.7422 42.7815 63.842 42.7701 63.943C42.6857 64.7024 43.4949 65.1534 43.8465 65.3121C43.9569 65.3619 44.0292 65.4723 44.0312 65.5935C44.0328 65.7148 43.9666 65.8228 43.8582 65.8756C43.4095 66.0949 42.4799 66.166 41.8778 66.1887Z" fill="#E3EEFF"/>
</g>
<rect x="322.319" y="83.7031" width="91.2826" height="110.843" rx="2.85714" fill="#E3EEFF"/>
<rect x="157.366" y="99.1414" width="137.924" height="74.171" rx="3.35714" fill="#FFF6BF" stroke="#3C50F8"/>
<rect x="322.319" y="201.067" width="91.2826" height="66.6508" rx="2.85714" fill="#E3EEFF"/>
<path d="M157.866 231.443C157.866 229.471 159.465 227.872 161.438 227.872H220.946C222.918 227.872 224.517 229.471 224.517 231.443V275.013C224.517 276.985 222.918 278.584 220.946 278.584H161.438C159.465 278.584 157.866 276.985 157.866 275.013V231.443Z" fill="#E3EEFF"/>
<path d="M294.789 231.443C294.789 229.471 293.19 227.872 291.217 227.872H230.26C228.288 227.872 226.689 229.471 226.689 231.443V275.013C226.689 276.985 228.288 278.584 230.26 278.584H291.217C293.19 278.584 294.789 276.985 294.789 275.013V231.443Z" fill="#E3EEFF"/>
<circle cx="145.912" cy="202.153" r="7.60688" fill="#E3EEFF"/>
<circle cx="340.068" cy="215.194" r="6.15795" fill="#E3EEFF"/>
<circle cx="340.068" cy="234.03" r="6.15795" fill="#E3EEFF"/>
<circle cx="340.068" cy="252.866" r="6.15795" fill="#E3EEFF"/>
<circle cx="145.912" cy="73.1984" r="7.60688" fill="#E3EEFF"/>
<rect x="157.866" y="200.342" width="60.1306" height="3.62232" rx="1.81116" fill="#E3EEFF"/>
<rect x="354.195" y="213.383" width="32.6009" height="3.62232" rx="1.81116" fill="#E3EEFF"/>
<rect x="354.195" y="232.219" width="32.6009" height="3.62232" rx="1.81116" fill="#E3EEFF"/>
<rect x="354.195" y="251.055" width="32.6009" height="3.62232" rx="1.81116" fill="#E3EEFF"/>
<rect x="157.866" y="72.1118" width="60.1306" height="3.62232" rx="1.81116" fill="#E3EEFF"/>
<rect x="157.866" y="209.036" width="136.924" height="3.62232" rx="1.81116" fill="#E3EEFF"/>
<rect x="157.866" y="82.9788" width="103.598" height="3.62232" rx="1.81116" fill="#E3EEFF"/>
<rect x="157.866" y="216.28" width="107.945" height="3.62232" rx="1.81116" fill="#E3EEFF"/>
<rect x="157.866" y="89.499" width="89.8336" height="3.62232" rx="1.81116" fill="#E3EEFF"/>
<circle cx="272.331" cy="113.407" r="3.62232" fill="#3C50F8"/>
<circle cx="272.332" cy="113.406" r="4.71411" stroke="#3C50F8" stroke-width="0.714286"/>
<path d="M235.383 111.213C235.383 110.424 236.023 109.784 236.812 109.784H261.434C262.223 109.784 262.863 110.424 262.863 111.213V112.39C262.863 112.629 262.983 112.852 263.182 112.985L263.467 113.174C263.892 113.456 263.892 114.081 263.467 114.364L263.182 114.553C262.983 114.685 262.863 114.909 262.863 115.148V116.325C262.863 117.114 262.223 117.753 261.434 117.753H250.622H247.874H236.812C236.023 117.753 235.383 117.114 235.383 116.325V111.213Z" fill="#FDBC15"/>
<circle cx="191.191" cy="137.314" r="3.62232" fill="#3C50F8"/>
<circle cx="191.191" cy="137.314" r="4.71411" stroke="#3C50F8" stroke-width="0.714286"/>
<path d="M177.427 123.528C177.427 122.739 178.066 122.1 178.855 122.1H202.803C203.592 122.1 204.232 122.739 204.232 123.528V127.992C204.232 128.781 203.592 129.421 202.803 129.421H192.583C192.396 129.421 192.216 129.494 192.083 129.625L191.413 130.281C191.126 130.562 190.664 130.551 190.391 130.258L189.823 129.648C189.687 129.503 189.498 129.421 189.3 129.421H178.855C178.066 129.421 177.427 128.781 177.427 127.992V123.528Z" fill="#FDBC15"/>
<path d="M222.177 158.152H220.757L220.541 158.808H219.371L220.831 154.785H222.114L223.569 158.808H222.393L222.177 158.152ZM221.899 157.296L221.467 155.995L221.041 157.296H221.899Z" fill="black"/>
<path d="M225.959 158.808L225.164 157.324H225.045V158.808H223.931V154.785H225.687C226.009 154.785 226.281 154.842 226.505 154.956C226.728 155.067 226.897 155.221 227.01 155.418C227.124 155.613 227.181 155.831 227.181 156.075C227.181 156.349 227.105 156.59 226.953 156.799C226.806 157.005 226.588 157.151 226.3 157.239L227.203 158.808H225.959ZM225.045 156.56H225.596C225.747 156.56 225.861 156.524 225.937 156.451C226.012 156.379 226.05 156.274 226.05 156.138C226.05 156.008 226.01 155.907 225.931 155.835C225.855 155.759 225.744 155.721 225.596 155.721H225.045V156.56Z" fill="black"/>
<path d="M227.551 156.788C227.551 156.392 227.632 156.04 227.795 155.732C227.961 155.42 228.196 155.179 228.499 155.008C228.802 154.833 229.151 154.745 229.544 154.745C230.044 154.745 230.465 154.88 230.805 155.15C231.146 155.417 231.366 155.78 231.464 156.24H230.266C230.194 156.088 230.094 155.972 229.965 155.892C229.84 155.812 229.694 155.772 229.527 155.772C229.27 155.772 229.063 155.865 228.908 156.052C228.757 156.235 228.681 156.48 228.681 156.788C228.681 157.1 228.757 157.349 228.908 157.536C229.063 157.718 229.27 157.81 229.527 157.81C229.694 157.81 229.84 157.77 229.965 157.69C230.094 157.61 230.194 157.494 230.266 157.342H231.464C231.366 157.802 231.146 158.167 230.805 158.437C230.465 158.704 230.044 158.837 229.544 158.837C229.151 158.837 228.802 158.751 228.499 158.58C228.196 158.405 227.961 158.163 227.795 157.855C227.632 157.543 227.551 157.188 227.551 156.788Z" fill="black"/>
<path d="M234.525 158.152H233.105L232.889 158.808H231.719L233.179 154.785H234.463L235.917 158.808H234.741L234.525 158.152ZM234.247 157.296L233.815 155.995L233.389 157.296H234.247Z" fill="black"/>
<path d="M237.864 154.785C238.285 154.785 238.652 154.871 238.966 155.042C239.284 155.209 239.529 155.445 239.699 155.749C239.87 156.054 239.955 156.402 239.955 156.794C239.955 157.182 239.868 157.528 239.693 157.832C239.523 158.137 239.279 158.376 238.961 158.551C238.646 158.723 238.281 158.808 237.864 158.808H236.28V154.785H237.864ZM237.779 157.821C238.105 157.821 238.36 157.732 238.546 157.553C238.732 157.374 238.824 157.121 238.824 156.794C238.824 156.463 238.732 156.208 238.546 156.029C238.36 155.846 238.105 155.755 237.779 155.755H237.393V157.821H237.779Z" fill="black"/>
<path d="M241.57 155.681V156.337H242.848V157.188H241.57V157.912H243.018V158.808H240.457V154.785H243.018V155.681H241.57Z" fill="black"/>
<path fill-rule="evenodd" clip-rule="evenodd" d="M217.456 156.503C217.459 156.474 217.46 156.444 217.46 156.414C217.46 155.335 215.824 154.46 213.805 154.46C211.787 154.46 210.15 155.335 210.15 156.414C210.15 156.444 210.152 156.474 210.154 156.503C210.152 156.533 210.15 156.563 210.15 156.592C210.15 156.622 210.152 156.652 210.154 156.681C210.152 156.711 210.15 156.741 210.15 156.771C210.15 156.8 210.152 156.83 210.154 156.86C210.152 156.889 210.15 156.919 210.15 156.949C210.15 156.979 210.152 157.008 210.154 157.038C210.152 157.067 210.15 157.097 210.15 157.127C210.15 157.157 210.152 157.187 210.154 157.216C210.152 157.246 210.15 157.275 210.15 157.305C210.15 157.335 210.152 157.365 210.154 157.394C210.152 157.424 210.15 157.453 210.15 157.483C210.15 157.513 210.152 157.543 210.154 157.572C210.152 157.602 210.15 157.632 210.15 157.662C210.15 158.741 211.787 159.615 213.805 159.615C215.824 159.615 217.46 158.741 217.46 157.662C217.46 157.632 217.459 157.602 217.456 157.572C217.459 157.543 217.46 157.513 217.46 157.483C217.46 157.453 217.459 157.424 217.456 157.394C217.459 157.365 217.46 157.335 217.46 157.305C217.46 157.275 217.459 157.246 217.456 157.216C217.459 157.187 217.46 157.157 217.46 157.127C217.46 157.097 217.459 157.067 217.456 157.038C217.459 157.008 217.46 156.979 217.46 156.949C217.46 156.919 217.459 156.889 217.456 156.86C217.459 156.83 217.46 156.8 217.46 156.771C217.46 156.741 217.459 156.711 217.456 156.681C217.459 156.652 217.46 156.622 217.46 156.592C217.46 156.563 217.459 156.533 217.456 156.503Z" fill="black"/>
<path d="M217.298 156.416C217.298 156.867 216.954 157.313 216.313 157.656C215.68 157.995 214.793 158.209 213.805 158.209C212.817 158.209 211.931 157.995 211.297 157.656C210.657 157.313 210.313 156.867 210.313 156.416C210.313 155.965 210.657 155.519 211.297 155.176C211.931 154.837 212.817 154.623 213.805 154.623C214.793 154.623 215.68 154.837 216.313 155.176C216.954 155.519 217.298 155.965 217.298 156.416Z" fill="#FFF6BF" stroke="black" stroke-width="0.324343"/>
<path fill-rule="evenodd" clip-rule="evenodd" d="M216.527 155.5C216.529 155.478 216.53 155.456 216.53 155.434C216.53 154.629 215.31 153.976 213.805 153.976C212.3 153.976 211.081 154.629 211.081 155.434C211.081 155.456 211.082 155.478 211.083 155.5C211.082 155.522 211.081 155.544 211.081 155.566C211.081 155.589 211.082 155.611 211.083 155.633C211.082 155.655 211.081 155.677 211.081 155.699C211.081 155.722 211.082 155.744 211.083 155.766C211.082 155.788 211.081 155.81 211.081 155.832C211.081 155.855 211.082 155.877 211.083 155.899C211.082 155.921 211.081 155.943 211.081 155.965C211.081 155.987 211.082 156.01 211.083 156.032C211.082 156.054 211.081 156.076 211.081 156.098C211.081 156.12 211.082 156.142 211.083 156.165C211.082 156.187 211.081 156.209 211.081 156.231C211.081 156.253 211.082 156.275 211.083 156.297C211.082 156.319 211.081 156.342 211.081 156.364C211.081 157.169 212.3 157.821 213.805 157.821C215.31 157.821 216.53 157.169 216.53 156.364C216.53 156.342 216.529 156.319 216.527 156.297C216.529 156.275 216.53 156.253 216.53 156.231C216.53 156.209 216.529 156.187 216.527 156.165C216.529 156.142 216.53 156.12 216.53 156.098C216.53 156.076 216.529 156.054 216.527 156.032C216.529 156.01 216.53 155.987 216.53 155.965C216.53 155.943 216.529 155.921 216.527 155.899C216.529 155.877 216.53 155.855 216.53 155.832C216.53 155.81 216.529 155.788 216.527 155.766C216.529 155.744 216.53 155.722 216.53 155.699C216.53 155.677 216.529 155.655 216.527 155.633C216.529 155.611 216.53 155.589 216.53 155.566C216.53 155.544 216.529 155.522 216.527 155.5Z" fill="black"/>
<path d="M216.367 155.434C216.367 155.747 216.127 156.068 215.655 156.321C215.19 156.57 214.536 156.729 213.805 156.729C213.074 156.729 212.42 156.57 211.955 156.321C211.483 156.068 211.243 155.747 211.243 155.434C211.243 155.12 211.483 154.799 211.955 154.546C212.42 154.297 213.074 154.138 213.805 154.138C214.536 154.138 215.19 154.297 215.655 154.546C216.127 154.799 216.367 155.12 216.367 155.434Z" fill="#FFF6BF" stroke="black" stroke-width="0.324343"/>
<rect x="41.2266" y="85.1521" width="10.1425" height="10.1425" rx="5.07125" fill="#E3EEFF"/>
<rect x="56.4414" y="88.7744" width="32.6009" height="2.89786" rx="0.714286" fill="#E3EEFF"/>
<rect x="41.2266" y="85.1521" width="10" height="10" rx="5" fill="#E3EEFF"/>
<rect x="56.2271" y="88.7234" width="32.1429" height="2.85714" rx="0.714286" fill="#E3EEFF"/>
<rect x="41.2266" y="103.724" width="10" height="10" rx="5" fill="#E3EEFF"/>
<rect x="56.2271" y="107.295" width="32.1429" height="2.85714" rx="0.714286" fill="#E3EEFF"/>
<rect x="41.2266" y="122.295" width="10" height="10" rx="5" fill="#E3EEFF"/>
<rect x="56.2271" y="125.866" width="32.1429" height="2.85714" rx="0.714286" fill="#E3EEFF"/>
<rect x="41.2266" y="140.866" width="10" height="10" rx="5" fill="#E3EEFF"/>
<rect x="56.2271" y="144.438" width="32.1429" height="2.85714" rx="0.714286" fill="#E3EEFF"/>
<rect x="41.2266" y="159.438" width="10" height="10" rx="5" fill="#E3EEFF"/>
<rect x="56.2271" y="163.009" width="32.1429" height="2.85714" rx="0.714286" fill="#E3EEFF"/>
<rect x="41.2266" y="188.751" width="47.8147" height="12.3159" rx="6.15795" fill="#E3EEFF"/>
<rect x="322.319" y="60.5203" width="91.2826" height="13.0404" rx="6.52018" fill="#E3EEFF"/>
<rect x="132.143" y="59.4287" width="176.78" height="120.996" rx="3.21429" stroke="#E3EEFF" stroke-width="0.714286"/>
<path d="M309.28 280.033V189.424C309.28 187.452 307.681 185.853 305.709 185.853H135.358C133.385 185.853 131.786 187.452 131.786 189.424V280.033" stroke="#E3EEFF" stroke-width="0.714286"/>
<defs>
<clipPath id="clip0_4_916">
<rect width="10.1425" height="10.1425" fill="white" transform="translate(41.2266 58.3467)"/>
</clipPath>
</defs>
</svg>
