<svg width="456" height="283" viewBox="0 0 456 283" fill="none" xmlns="http://www.w3.org/2000/svg">
<rect x="1.10083" y="1.49634" width="453.542" height="280" rx="8" fill="white" stroke="#DAA339" stroke-width="2"/>
<path d="M1.83032 9.22547C1.83032 5.35947 4.96433 2.22546 8.83032 2.22546H446.914C450.78 2.22546 453.914 5.35947 453.914 9.22546V16.0796H1.83032V9.22547Z" fill="#DAA339"/>
<rect x="111.934" y="2.22546" width="78.75" height="13.8542" fill="#FDBC15"/>
<path fill-rule="evenodd" clip-rule="evenodd" d="M112.664 2.22546H33.9137V14.0796C33.9137 15.1842 33.0182 16.0796 31.9137 16.0796H1.83032V36.4963H453.914V16.0796H114.664C113.559 16.0796 112.664 15.1842 112.664 14.0796V2.22546Z" fill="#FDBC15"/>
<rect x="57.9756" y="18.9963" width="325.938" height="14.5833" rx="2" fill="white"/>
<circle cx="9.12174" cy="9.51713" r="2.91667" fill="#FDBC15"/>
<circle cx="398.132" cy="26.6525" r="4.73958" fill="#DAA339"/>
<circle cx="17.872" cy="9.51713" r="2.91667" fill="#FDBC15"/>
<circle cx="412.715" cy="26.6525" r="4.73958" fill="#DAA339"/>
<circle cx="26.6215" cy="9.51713" r="2.91667" fill="#FDBC15"/>
<circle cx="426.57" cy="26.6525" r="4.73958" fill="#DAA339"/>
<rect x="56.5173" y="69.3088" width="144.375" height="125.417" fill="#FDBC15"/>
<rect x="56.5173" y="245.038" width="144.375" height="35.7292" fill="#FDBC15"/>
<rect x="56.5173" y="198.371" width="119.583" height="6.5625" fill="#FDBC15"/>
<rect x="56.5173" y="207.121" width="71.4583" height="4.375" fill="#FDBC15"/>
<rect x="56.5173" y="213.684" width="102.083" height="4.375" fill="#FDBC15"/>
<rect x="210.372" y="177.03" width="89.6875" height="80.2083" fill="#FDBC15"/>
<rect x="309.538" y="177.03" width="89.6875" height="80.2083" fill="#FDBC15"/>
<rect x="211.101" y="260.884" width="82.3958" height="6.5625" fill="#FDBC15"/>
<rect x="309.538" y="260.884" width="47.3958" height="6.5625" fill="#FDBC15"/>
<rect x="211.101" y="269.634" width="71.4583" height="4.375" fill="#FDBC15"/>
<rect x="309.538" y="269.634" width="76.5625" height="4.375" fill="#FDBC15"/>
<rect x="211.101" y="276.197" width="35.7292" height="4.375" fill="#FDBC15"/>
<rect x="309.538" y="276.197" width="67.8125" height="4.375" fill="#FDBC15"/>
<rect x="56.5173" y="220.246" width="102.083" height="4.375" fill="#FDBC15"/>
<rect x="210.601" y="68.8088" width="189.125" height="100.167" fill="#FFF6BF" stroke="#FDBC15"/>
<circle cx="249.747" cy="124.725" r="3.64583" fill="#DAA339"/>
<circle cx="249.747" cy="124.726" r="5.33333" stroke="#DAA339"/>
<path d="M233.705 108.496C233.705 107.392 234.601 106.496 235.705 106.496H263.059C264.164 106.496 265.059 107.392 265.059 108.496V113.707C265.059 114.811 264.164 115.707 263.059 115.707H251.522C251.248 115.707 250.986 115.82 250.797 116.018L250.213 116.634C249.806 117.063 249.118 117.047 248.732 116.601L248.256 116.052C248.066 115.833 247.791 115.707 247.501 115.707H235.705C234.601 115.707 233.705 114.811 233.705 113.707V108.496Z" fill="#FDBC15"/>
<path d="M299.57 83.4584H297.733L297.454 84.307H295.941L297.829 79.1048H299.489L301.369 84.307H299.849L299.57 83.4584ZM299.21 82.3515L298.652 80.6691L298.101 82.3515H299.21Z" fill="black"/>
<path d="M304.461 84.307L303.432 82.3884H303.278V84.307H301.838V79.1048H304.108C304.524 79.1048 304.877 79.1785 305.166 79.3261C305.455 79.4688 305.673 79.668 305.82 79.9238C305.966 80.1747 306.04 80.4576 306.04 80.7724C306.04 81.1266 305.942 81.439 305.746 81.7095C305.555 81.9752 305.274 82.1646 304.901 82.2777L306.069 84.307H304.461ZM303.278 81.3996H303.991C304.186 81.3996 304.333 81.3529 304.431 81.2594C304.529 81.166 304.578 81.0307 304.578 80.8536C304.578 80.6863 304.527 80.556 304.424 80.4625C304.326 80.3641 304.182 80.3149 303.991 80.3149H303.278V81.3996Z" fill="black"/>
<path d="M306.518 81.6948C306.518 81.1832 306.624 80.7281 306.834 80.3297C307.05 79.9263 307.353 79.6139 307.745 79.3925C308.137 79.1662 308.587 79.0531 309.096 79.0531C309.743 79.0531 310.286 79.2277 310.727 79.577C311.168 79.9214 311.452 80.3912 311.579 80.9864H310.029C309.936 80.7896 309.806 80.6396 309.64 80.5363C309.478 80.433 309.29 80.3813 309.074 80.3813C308.741 80.3813 308.475 80.5018 308.274 80.7429C308.078 80.979 307.98 81.2963 307.98 81.6948C307.98 82.0982 308.078 82.4204 308.274 82.6614C308.475 82.8976 308.741 83.0156 309.074 83.0156C309.29 83.0156 309.478 82.964 309.64 82.8607C309.806 82.7574 309.936 82.6073 310.029 82.4106H311.579C311.452 83.0058 311.168 83.4781 310.727 83.8273C310.286 84.1717 309.743 84.3439 309.096 84.3439C308.587 84.3439 308.137 84.2332 307.745 84.0118C307.353 83.7855 307.05 83.4731 306.834 83.0747C306.624 82.6713 306.518 82.2113 306.518 81.6948Z" fill="black"/>
<path d="M315.537 83.4584H313.7L313.421 84.307H311.908L313.796 79.1048H315.456L317.336 84.307H315.816L315.537 83.4584ZM315.177 82.3515L314.619 80.6691L314.068 82.3515H315.177Z" fill="black"/>
<path d="M319.855 79.1048C320.398 79.1048 320.873 79.2154 321.28 79.4368C321.691 79.6533 322.007 79.9583 322.227 80.3518C322.448 80.7454 322.558 81.1955 322.558 81.7022C322.558 82.2039 322.445 82.6516 322.22 83.0451C322 83.4387 321.684 83.7486 321.272 83.9749C320.866 84.1963 320.394 84.307 319.855 84.307H317.806V79.1048H319.855ZM319.745 83.0304C320.166 83.0304 320.496 82.9148 320.736 82.6836C320.976 82.4524 321.096 82.1252 321.096 81.7022C321.096 81.2742 320.976 80.9446 320.736 80.7134C320.496 80.4773 320.166 80.3592 319.745 80.3592H319.245V83.0304H319.745Z" fill="black"/>
<path d="M324.647 80.2633V81.1118H326.299V82.2113H324.647V83.1485H326.52V84.307H323.207V79.1048H326.52V80.2633H324.647Z" fill="black"/>
<path fill-rule="evenodd" clip-rule="evenodd" d="M293.465 81.3264C293.468 81.2882 293.469 81.2498 293.469 81.2112C293.469 79.8159 291.354 78.6848 288.743 78.6848C286.133 78.6848 284.017 79.8159 284.017 81.2112C284.017 81.2498 284.019 81.2882 284.022 81.3264C284.019 81.3646 284.017 81.403 284.017 81.4416C284.017 81.4802 284.019 81.5186 284.022 81.5568C284.019 81.595 284.017 81.6334 284.017 81.672C284.017 81.7106 284.019 81.749 284.022 81.7872C284.019 81.8254 284.017 81.8638 284.017 81.9024C284.017 81.941 284.019 81.9794 284.022 82.0176C284.019 82.0558 284.017 82.0942 284.017 82.1328C284.017 82.1714 284.019 82.2099 284.022 82.248C284.019 82.2862 284.017 82.3246 284.017 82.3632C284.017 82.4019 284.019 82.4403 284.022 82.4785C284.019 82.5166 284.017 82.5551 284.017 82.5937C284.017 82.6323 284.019 82.6707 284.022 82.7089C284.019 82.7471 284.017 82.7855 284.017 82.8241C284.017 84.2193 286.133 85.3504 288.743 85.3504C291.354 85.3504 293.469 84.2193 293.469 82.8241C293.469 82.7855 293.468 82.7471 293.465 82.7089C293.468 82.6707 293.469 82.6323 293.469 82.5937C293.469 82.5551 293.468 82.5166 293.465 82.4785C293.468 82.4403 293.469 82.4019 293.469 82.3632C293.469 82.3246 293.468 82.2862 293.465 82.248C293.468 82.2099 293.469 82.1714 293.469 82.1328C293.469 82.0942 293.468 82.0558 293.465 82.0176C293.468 81.9794 293.469 81.941 293.469 81.9024C293.469 81.8638 293.468 81.8254 293.465 81.7872C293.468 81.749 293.469 81.7106 293.469 81.672C293.469 81.6334 293.468 81.595 293.465 81.5568C293.468 81.5186 293.469 81.4802 293.469 81.4416C293.469 81.403 293.468 81.3646 293.465 81.3264Z" fill="black"/>
<path d="M293.242 81.2136C293.242 81.7876 292.804 82.3596 291.978 82.8015C291.162 83.2382 290.019 83.5153 288.743 83.5153C287.468 83.5153 286.325 83.2382 285.509 82.8015C284.683 82.3596 284.244 81.7876 284.244 81.2136C284.244 80.6396 284.683 80.0675 285.509 79.6257C286.325 79.1889 287.468 78.9119 288.743 78.9119C290.019 78.9119 291.162 79.1889 291.978 79.6257C292.804 80.0675 293.242 80.6396 293.242 81.2136Z" fill="#FFF6BF" stroke="black" stroke-width="0.454081"/>
<path fill-rule="evenodd" clip-rule="evenodd" d="M292.263 80.0291C292.265 80.0006 292.266 79.9719 292.266 79.9431C292.266 78.9025 290.689 78.0588 288.743 78.0588C286.798 78.0588 285.22 78.9025 285.22 79.9431C285.22 79.9719 285.221 80.0006 285.224 80.0291C285.221 80.0575 285.22 80.0862 285.22 80.115C285.22 80.1438 285.221 80.1724 285.224 80.2009C285.221 80.2294 285.22 80.258 285.22 80.2868C285.22 80.3156 285.221 80.3443 285.224 80.3728C285.221 80.4013 285.22 80.4299 285.22 80.4587C285.22 80.4875 285.221 80.5162 285.224 80.5446C285.221 80.5731 285.22 80.6018 285.22 80.6306C285.22 80.6594 285.221 80.688 285.224 80.7165C285.221 80.745 285.22 80.7736 285.22 80.8024C285.22 80.8312 285.221 80.8599 285.224 80.8883C285.221 80.9168 285.22 80.9455 285.22 80.9743C285.22 81.0031 285.221 81.0317 285.224 81.0602C285.221 81.0887 285.22 81.1173 285.22 81.1461C285.22 82.1868 286.798 83.0304 288.743 83.0304C290.689 83.0304 292.266 82.1868 292.266 81.1461C292.266 81.1173 292.265 81.0887 292.263 81.0602C292.265 81.0317 292.266 81.0031 292.266 80.9743C292.266 80.9455 292.265 80.9168 292.263 80.8883C292.265 80.8599 292.266 80.8312 292.266 80.8024C292.266 80.7736 292.265 80.745 292.263 80.7165C292.265 80.688 292.266 80.6594 292.266 80.6306C292.266 80.6018 292.265 80.5731 292.263 80.5446C292.265 80.5162 292.266 80.4875 292.266 80.4587C292.266 80.4299 292.265 80.4013 292.263 80.3728C292.265 80.3443 292.266 80.3156 292.266 80.2868C292.266 80.258 292.265 80.2294 292.263 80.2009C292.265 80.1724 292.266 80.1438 292.266 80.115C292.266 80.0862 292.265 80.0575 292.263 80.0291Z" fill="black"/>
<path d="M292.039 79.9431C292.039 80.3391 291.736 80.7501 291.127 81.0753C290.529 81.3955 289.686 81.6004 288.743 81.6004C287.8 81.6004 286.958 81.3955 286.359 81.0753C285.751 80.7501 285.447 80.3391 285.447 79.9431C285.447 79.5471 285.751 79.1362 286.359 78.8109C286.958 78.4908 287.8 78.2859 288.743 78.2859C289.686 78.2859 290.529 78.4908 291.127 78.8109C291.736 79.1362 292.039 79.5471 292.039 79.9431Z" fill="#FFF6BF" stroke="black" stroke-width="0.454081"/>
<circle cx="365.684" cy="142.225" r="3.64583" fill="#DAA339"/>
<circle cx="365.685" cy="142.225" r="5.33333" stroke="#DAA339"/>
<path d="M328.497 138.392C328.497 137.288 329.393 136.392 330.497 136.392H354.155C355.26 136.392 356.155 137.288 356.155 138.392V140.343C356.155 140.614 356.265 140.873 356.46 141.062L356.92 141.506C357.327 141.9 357.327 142.551 356.92 142.944L356.46 143.389C356.265 143.577 356.155 143.837 356.155 144.108V146.059C356.155 147.163 355.26 148.059 354.155 148.059H343.835H341.069H330.497C329.393 148.059 328.497 147.163 328.497 146.059V138.392Z" fill="#FDBC15"/>
</svg>
