<svg width="457" height="286" viewBox="0 0 457 286" fill="none" xmlns="http://www.w3.org/2000/svg">
<rect x="1.36499" y="1.78589" width="454" height="282.554" rx="8" fill="white" stroke="#E2211C" stroke-width="2"/>
<rect x="95.1819" y="22.7567" width="270.045" height="168.502" rx="6.25446" fill="#FFF6BF" stroke="#E53125" stroke-width="0.735818"/>
<path d="M2.10083 7.67245C2.10083 4.82778 4.40689 2.52173 7.25156 2.52173H450.214C453.059 2.52173 455.365 4.82779 455.365 7.67246V16.5023H2.10083V7.67245Z" fill="#E53125"/>
<rect x="113.209" y="2.52173" width="79.4684" height="13.9806" fill="#FDBFC4"/>
<path fill-rule="evenodd" clip-rule="evenodd" d="M113.224 2.52173H34.268V15.0306C34.268 15.8434 33.6091 16.5023 32.7963 16.5023H2.46875V37.1052H454.261V16.5023H114.695C113.883 16.5023 113.224 15.8434 113.224 15.0306V2.52173Z" fill="#FFDADD"/>
<rect x="58.7588" y="19.4456" width="328.911" height="14.7164" rx="1.47164" fill="white"/>
<circle cx="9.4589" cy="9.87992" r="2.94327" fill="#FDBFC4"/>
<circle cx="402.018" cy="27.1716" r="4.78282" fill="#E53125"/>
<circle cx="18.2887" cy="9.87992" r="2.94327" fill="#FDBFC4"/>
<circle cx="416.734" cy="27.1716" r="4.78282" fill="#E53125"/>
<circle cx="27.1186" cy="9.87992" r="2.94327" fill="#FDBFC4"/>
<circle cx="430.715" cy="27.1716" r="4.78282" fill="#E53125"/>
<circle cx="141.906" cy="150.421" r="5.15073" fill="#E53125"/>
<circle cx="325.861" cy="65.0663" r="5.15073" fill="#E53125"/>
<circle cx="325.861" cy="93.7632" r="5.15073" fill="#E53125"/>
<circle cx="141.906" cy="150.421" r="6.99028" stroke="#E53125" stroke-width="0.735818"/>
<circle cx="325.861" cy="65.0663" r="6.99028" stroke="#E53125" stroke-width="0.735818"/>
<circle cx="325.861" cy="93.7632" r="6.99028" stroke="#E53125" stroke-width="0.735818"/>
<path d="M121.303 129.082C121.303 128.27 121.962 127.611 122.775 127.611H160.302C161.115 127.611 161.773 128.27 161.773 129.082V137.912C161.773 138.725 161.115 139.384 160.302 139.384H144.06C143.859 139.384 143.667 139.466 143.529 139.611L142.186 141.011C141.888 141.323 141.386 141.312 141.101 140.987L139.919 139.635C139.779 139.476 139.577 139.384 139.365 139.384H122.775C121.962 139.384 121.303 138.725 121.303 137.912V129.082Z" fill="#FDBC15"/>
<path d="M271.41 61.3872C271.41 60.5744 272.069 59.9155 272.882 59.9155H310.409C311.222 59.9155 311.88 60.5744 311.88 61.3872V63.9366C311.88 64.1827 312.003 64.4124 312.208 64.5489L313.17 65.1898C313.606 65.4811 313.606 66.1231 313.17 66.4143L312.208 67.0553C312.003 67.1917 311.88 67.4215 311.88 67.6675V70.217C311.88 71.0297 311.222 71.6886 310.409 71.6886H293.853H289.806H272.882C272.069 71.6886 271.41 71.0297 271.41 70.217V61.3872Z" fill="#FDBC15"/>
<path d="M345.728 116.574C345.728 117.386 345.069 118.045 344.256 118.045L306.73 118.045C305.917 118.045 305.258 117.386 305.258 116.574L305.258 107.744C305.258 106.931 305.917 106.272 306.73 106.272L322.972 106.272C323.172 106.272 323.364 106.19 323.503 106.045L324.845 104.645C325.144 104.333 325.646 104.344 325.93 104.669L327.113 106.021C327.252 106.18 327.454 106.272 327.666 106.272L344.256 106.272C345.069 106.272 345.728 106.931 345.728 107.744L345.728 116.574Z" fill="#FDBC15"/>
<path d="M224.56 176.473H222.707L222.425 177.329H220.898L222.803 172.079H224.478L226.376 177.329H224.841L224.56 176.473ZM224.197 175.356L223.633 173.658L223.077 175.356H224.197Z" fill="black"/>
<path d="M229.495 177.329L228.458 175.393H228.302V177.329H226.849V172.079H229.14C229.56 172.079 229.915 172.154 230.207 172.303C230.499 172.447 230.718 172.648 230.867 172.906C231.015 173.159 231.089 173.445 231.089 173.762C231.089 174.12 230.99 174.435 230.793 174.708C230.6 174.976 230.316 175.167 229.94 175.281L231.119 177.329H229.495ZM228.302 174.395H229.021C229.219 174.395 229.367 174.348 229.466 174.254C229.565 174.159 229.614 174.023 229.614 173.844C229.614 173.675 229.562 173.544 229.458 173.45C229.36 173.35 229.214 173.301 229.021 173.301H228.302V174.395Z" fill="black"/>
<path d="M231.572 174.693C231.572 174.177 231.678 173.718 231.891 173.316C232.108 172.908 232.414 172.593 232.81 172.37C233.205 172.142 233.66 172.027 234.173 172.027C234.826 172.027 235.374 172.204 235.819 172.556C236.264 172.904 236.55 173.378 236.679 173.978H235.115C235.021 173.78 234.89 173.628 234.722 173.524C234.559 173.42 234.369 173.368 234.151 173.368C233.815 173.368 233.546 173.489 233.343 173.733C233.146 173.971 233.047 174.291 233.047 174.693C233.047 175.1 233.146 175.425 233.343 175.669C233.546 175.907 233.815 176.026 234.151 176.026C234.369 176.026 234.559 175.974 234.722 175.87C234.89 175.765 235.021 175.614 235.115 175.415H236.679C236.55 176.016 236.264 176.493 235.819 176.845C235.374 177.193 234.826 177.366 234.173 177.366C233.66 177.366 233.205 177.255 232.81 177.031C232.414 176.803 232.108 176.488 231.891 176.086C231.678 175.679 231.572 175.214 231.572 174.693Z" fill="black"/>
<path d="M240.673 176.473H238.82L238.538 177.329H237.011L238.916 172.079H240.591L242.489 177.329H240.954L240.673 176.473ZM240.309 175.356L239.746 173.658L239.19 175.356H240.309Z" fill="black"/>
<path d="M245.03 172.079C245.579 172.079 246.058 172.191 246.468 172.415C246.883 172.633 247.202 172.941 247.424 173.338C247.647 173.735 247.758 174.189 247.758 174.701C247.758 175.207 247.644 175.659 247.417 176.056C247.194 176.453 246.876 176.766 246.461 176.994C246.05 177.217 245.574 177.329 245.03 177.329H242.962V172.079H245.03ZM244.919 176.041C245.344 176.041 245.677 175.924 245.92 175.691C246.162 175.458 246.283 175.127 246.283 174.701C246.283 174.269 246.162 173.936 245.92 173.703C245.677 173.464 245.344 173.345 244.919 173.345H244.415V176.041H244.919Z" fill="black"/>
<path d="M249.865 173.249V174.105H251.533V175.214H249.865V176.16H251.755V177.329H248.413V172.079H251.755V173.249H249.865Z" fill="black"/>
<path fill-rule="evenodd" clip-rule="evenodd" d="M218.399 174.321C218.402 174.283 218.404 174.244 218.404 174.205C218.404 172.797 216.269 171.656 213.635 171.656C211.001 171.656 208.866 172.797 208.866 174.205C208.866 174.244 208.867 174.283 208.871 174.321C208.867 174.36 208.866 174.399 208.866 174.438C208.866 174.477 208.867 174.515 208.871 174.554C208.867 174.592 208.866 174.631 208.866 174.67C208.866 174.709 208.867 174.748 208.871 174.786C208.867 174.825 208.866 174.864 208.866 174.903C208.866 174.942 208.867 174.98 208.871 175.019C208.867 175.058 208.866 175.096 208.866 175.135C208.866 175.174 208.867 175.213 208.871 175.251C208.867 175.29 208.866 175.329 208.866 175.368C208.866 175.407 208.867 175.445 208.871 175.484C208.867 175.523 208.866 175.561 208.866 175.6C208.866 175.639 208.867 175.678 208.871 175.717C208.867 175.755 208.866 175.794 208.866 175.833C208.866 177.241 211.001 178.382 213.635 178.382C216.269 178.382 218.404 177.241 218.404 175.833C218.404 175.794 218.402 175.755 218.399 175.717C218.402 175.678 218.404 175.639 218.404 175.6C218.404 175.561 218.402 175.523 218.399 175.484C218.402 175.445 218.404 175.407 218.404 175.368C218.404 175.329 218.402 175.29 218.399 175.251C218.402 175.213 218.404 175.174 218.404 175.135C218.404 175.096 218.402 175.058 218.399 175.019C218.402 174.98 218.404 174.942 218.404 174.903C218.404 174.864 218.402 174.825 218.399 174.786C218.402 174.748 218.404 174.709 218.404 174.67C218.404 174.631 218.402 174.592 218.399 174.554C218.402 174.515 218.404 174.477 218.404 174.438C218.404 174.399 218.402 174.36 218.399 174.321Z" fill="black"/>
<path d="M218.237 174.208C218.237 174.821 217.77 175.415 216.928 175.865C216.094 176.311 214.93 176.592 213.635 176.592C212.34 176.592 211.176 176.311 210.341 175.865C209.5 175.415 209.033 174.821 209.033 174.208C209.033 173.594 209.5 173.001 210.341 172.55C211.176 172.104 212.34 171.823 213.635 171.823C214.93 171.823 216.094 172.104 216.928 172.55C217.77 173.001 218.237 173.594 218.237 174.208Z" fill="#FFF6BF" stroke="black" stroke-width="0.334121"/>
<path fill-rule="evenodd" clip-rule="evenodd" d="M217.186 173.012C217.189 172.984 217.19 172.955 217.19 172.926C217.19 171.875 215.598 171.024 213.635 171.024C211.671 171.024 210.079 171.875 210.079 172.926C210.079 172.955 210.081 172.984 210.083 173.012C210.081 173.041 210.079 173.07 210.079 173.099C210.079 173.128 210.081 173.157 210.083 173.186C210.081 173.215 210.079 173.243 210.079 173.273C210.079 173.302 210.081 173.33 210.083 173.359C210.081 173.388 210.079 173.417 210.079 173.446C210.079 173.475 210.081 173.504 210.083 173.533C210.081 173.561 210.079 173.59 210.079 173.619C210.079 173.648 210.081 173.677 210.083 173.706C210.081 173.735 210.079 173.764 210.079 173.793C210.079 173.822 210.081 173.851 210.083 173.879C210.081 173.908 210.079 173.937 210.079 173.966C210.079 173.995 210.081 174.024 210.083 174.053C210.081 174.082 210.079 174.111 210.079 174.14C210.079 175.19 211.671 176.041 213.635 176.041C215.598 176.041 217.19 175.19 217.19 174.14C217.19 174.111 217.189 174.082 217.186 174.053C217.189 174.024 217.19 173.995 217.19 173.966C217.19 173.937 217.189 173.908 217.186 173.879C217.189 173.851 217.19 173.822 217.19 173.793C217.19 173.764 217.189 173.735 217.186 173.706C217.189 173.677 217.19 173.648 217.19 173.619C217.19 173.59 217.189 173.561 217.186 173.533C217.189 173.504 217.19 173.475 217.19 173.446C217.19 173.417 217.189 173.388 217.186 173.359C217.189 173.33 217.19 173.302 217.19 173.273C217.19 173.243 217.189 173.215 217.186 173.186C217.189 173.157 217.19 173.128 217.19 173.099C217.19 173.07 217.189 173.041 217.186 173.012Z" fill="black"/>
<path d="M217.023 172.926C217.023 173.359 216.691 173.79 216.07 174.123C215.455 174.452 214.594 174.66 213.635 174.66C212.675 174.66 211.814 174.452 211.199 174.123C210.578 173.79 210.246 173.359 210.246 172.926C210.246 172.492 210.578 172.061 211.199 171.728C211.814 171.4 212.675 171.191 213.635 171.191C214.594 171.191 215.455 171.4 216.07 171.728C216.691 172.061 217.023 172.492 217.023 172.926Z" fill="#FFF6BF" stroke="black" stroke-width="0.334121"/>
<path d="M95.5498 207.079C95.5498 205.86 96.5381 204.872 97.7573 204.872H179.433C180.652 204.872 181.641 205.86 181.641 207.079V283.604H95.5498V207.079Z" fill="#FFDADD"/>
<path d="M186.791 207.079C186.791 205.86 187.78 204.872 188.999 204.872H271.41C272.63 204.872 273.618 205.86 273.618 207.079V283.604H186.791V207.079Z" fill="#FFDADD"/>
<path d="M278.769 207.079C278.769 205.86 279.757 204.872 280.976 204.872H362.652C363.871 204.872 364.859 205.86 364.859 207.079V283.604H278.769V207.079Z" fill="#FFDADD"/>
<rect x="102.908" y="254.907" width="71.3744" height="5.15073" fill="#F7939B"/>
<rect x="102.908" y="271.831" width="56.658" height="2.94327" fill="#FDBFC4"/>
<rect x="194.149" y="271.831" width="56.658" height="2.94327" fill="#FDBFC4"/>
<rect x="286.127" y="271.831" width="32.376" height="2.94327" fill="#FDBFC4"/>
<rect x="102.908" y="276.246" width="66.2237" height="2.94327" fill="#FDBFC4"/>
<rect x="194.149" y="276.246" width="44.8849" height="2.94327" fill="#FDBFC4"/>
<rect x="286.127" y="276.246" width="44.8849" height="2.94327" fill="#FDBFC4"/>
<rect x="102.908" y="280.661" width="53.7147" height="2.94327" fill="#FDBFC4"/>
<rect x="194.149" y="280.661" width="68.4311" height="2.94327" fill="#FDBFC4"/>
<rect x="286.127" y="280.661" width="53.7147" height="2.94327" fill="#FDBFC4"/>
<rect x="194.149" y="254.907" width="48.564" height="5.15073" fill="#F7939B"/>
<rect x="194.149" y="262.266" width="68.4311" height="5.15073" fill="#F7939B"/>
<rect x="286.127" y="262.266" width="55.1864" height="5.15073" fill="#F7939B"/>
<rect x="286.127" y="254.907" width="71.3744" height="5.15073" fill="#F7939B"/>
<path d="M2.46875 37.1052H454.261V57.7081H2.46875V37.1052Z" fill="#FFF2F3"/>
<rect x="131.605" y="45.1992" width="44.1491" height="4.41491" fill="#FFDADD"/>
<rect x="181.641" y="45.1992" width="44.1491" height="4.41491" fill="#FFDADD"/>
<rect x="231.676" y="45.1992" width="44.1491" height="4.41491" fill="#FFDADD"/>
<rect x="281.712" y="45.1992" width="44.1491" height="4.41491" fill="#FFDADD"/>
<circle cx="47.3536" cy="47.0388" r="6.25446" fill="#F7939B"/>
<rect x="376.632" y="44.4634" width="42.6775" height="7.35818" rx="3.67909" fill="#F7939B"/>
</svg>
